<svg width="784" height="319" viewBox="0 0 784 319" fill="none" xmlns="http://www.w3.org/2000/svg">
<path fill-rule="evenodd" clip-rule="evenodd" d="M66.7938 14.3476H24.5908V31.1568H63.3365V44.9193H24.5908V65.2761H68.7484V79.5081H8.31274V0.324219H66.7938V14.3476Z" fill="#1F1F1F"/>
<path fill-rule="evenodd" clip-rule="evenodd" d="M127.044 24.313C130.9 27.4849 132.845 32.7437 132.845 40.0788V79.509H117.039V43.8872C117.039 40.8092 116.63 38.4407 115.81 36.8025C114.297 33.7871 111.438 32.295 107.203 32.295C102.012 32.295 98.4494 34.4966 96.5263 38.8893C95.5175 41.2266 95.0131 44.1898 95.0131 47.8104V79.509H79.5967V21.0576H94.5297V29.6031C96.5053 26.598 98.3653 24.4278 100.131 23.1026C103.294 20.7341 107.298 19.5551 112.153 19.5551C118.216 19.5551 123.187 21.1411 127.044 24.313Z" fill="#1F1F1F"/>
<path fill-rule="evenodd" clip-rule="evenodd" d="M158.127 60.8125C158.453 63.5358 159.168 65.4661 160.25 66.6243C162.173 68.6589 165.725 69.6814 170.906 69.6814C173.953 69.6814 176.37 69.2328 178.167 68.3354C179.954 67.4485 180.858 66.1026 180.858 64.3079C180.858 62.5863 180.133 61.282 178.693 60.3847C177.243 59.4874 171.873 57.9536 162.562 55.7729C155.857 54.1139 151.129 52.0584 148.386 49.5855C145.653 47.1439 144.287 43.6381 144.287 39.0576C144.287 33.6423 146.421 28.9992 150.708 25.1177C154.985 21.2362 161.017 19.2955 168.794 19.2955C176.16 19.2955 182.171 20.7458 186.816 23.6569C191.461 26.5889 194.13 31.6285 194.813 38.7967H179.387C179.176 36.8142 178.619 35.2596 177.716 34.1118C176.013 32.0355 173.123 31.0025 169.035 31.0025C165.673 31.0025 163.266 31.5138 161.847 32.5572C160.418 33.6006 159.693 34.8109 159.693 36.2195C159.693 37.9724 160.46 39.2454 161.974 40.0279C163.497 40.8522 168.857 42.2712 178.073 44.2641C184.221 45.704 188.823 47.8743 191.892 50.7645C194.929 53.7069 196.442 57.3797 196.442 61.7829C196.442 67.5842 194.256 72.3212 189.906 75.994C185.545 79.6668 178.819 81.4928 169.718 81.4928C160.429 81.4928 153.556 79.552 149.142 75.6706C144.708 71.7891 142.501 66.8329 142.501 60.8125H158.127Z" fill="#1F1F1F"/>
<path fill-rule="evenodd" clip-rule="evenodd" d="M222.051 35.369C219.875 37.6019 218.499 40.6173 217.942 44.4258H244.518C244.224 40.3669 242.858 37.2889 240.399 35.1708C237.951 33.0735 234.903 32.0197 231.256 32.0197C227.295 32.0197 224.226 33.1361 222.051 35.369ZM245.123 22.1385C249.243 23.9644 252.637 26.8651 255.317 30.8092C257.734 34.2837 259.3 38.3112 260.014 42.9126C260.424 45.5942 260.603 49.4756 260.519 54.5257H217.569C217.811 60.4001 219.871 64.5215 223.738 66.89C226.092 68.3508 228.929 69.0812 232.24 69.0812C235.76 69.0812 238.608 68.1943 240.804 66.4101C241.992 65.4397 243.053 64.0937 243.978 62.3721H259.72C259.31 65.8466 257.397 69.3733 254.003 72.9626C248.717 78.6492 241.33 81.4977 231.819 81.4977C223.969 81.4977 217.033 79.0874 211.043 74.2878C205.043 69.4986 202.048 61.673 202.048 50.8425C202.048 40.7111 204.759 32.9273 210.161 27.512C215.583 22.1072 222.614 19.3943 231.252 19.3943C236.391 19.3943 241.014 20.3125 245.123 22.1385Z" fill="#1F1F1F"/>
<path fill-rule="evenodd" clip-rule="evenodd" d="M340.792 21.1653C343.314 22.1775 345.616 23.9304 347.665 26.4345C349.325 28.4692 350.45 30.9733 351.028 33.9575C351.385 35.9191 351.564 38.7989 351.564 42.6073L351.459 79.5125H335.664V42.2317C335.664 40.0092 335.296 38.1833 334.571 36.7434C333.205 34.0201 330.683 32.6741 327.005 32.6741C322.738 32.6741 319.806 34.427 318.188 37.9224C317.358 39.7901 316.927 42.0334 316.927 44.6419V79.5125H301.406V44.6419C301.406 41.1674 301.048 38.6528 300.323 37.0668C299.02 34.2392 296.477 32.8202 292.694 32.8202C288.301 32.8202 285.338 34.2392 283.825 37.0668C282.994 38.6841 282.585 41.0839 282.585 44.2663V79.5125H266.948V21.061H281.922V29.6065C283.846 26.5597 285.643 24.3999 287.334 23.1061C290.329 20.8106 294.207 19.6628 298.978 19.6628C303.476 19.6628 307.122 20.6436 309.907 22.6261C312.135 24.4416 313.837 26.7893 314.993 29.6482C317.001 26.2154 319.523 23.6904 322.507 22.0835C325.691 20.4767 329.212 19.6628 333.121 19.6628C335.717 19.6628 338.27 20.1637 340.792 21.1653Z" fill="#1F1F1F"/>
<path fill-rule="evenodd" clip-rule="evenodd" d="M402.1 63.6649C404.317 60.4721 405.421 56.288 405.421 51.0919C405.421 46.9287 404.885 43.4959 403.792 40.783C401.722 35.6182 397.907 33.041 392.337 33.041C386.694 33.041 382.827 35.566 380.715 40.6161C379.622 43.3081 379.086 46.7722 379.086 51.0397C379.086 56.0585 380.21 60.2112 382.459 63.4979C384.719 66.7951 388.155 68.4437 392.768 68.4437C396.772 68.4437 399.883 66.8577 402.1 63.6649ZM414.99 27.9909C419.394 33.5418 421.6 40.71 421.6 49.485C421.6 58.5835 419.425 66.1064 415.074 72.0955C410.724 78.0742 404.65 81.0688 396.863 81.0688C391.966 81.0688 388.025 80.0984 385.061 78.1682C383.286 77.0204 381.352 75.0171 379.292 72.1477V79.5141H364.086V0.424196H379.513V28.5856C381.467 25.8624 383.632 23.786 385.997 22.3461C388.782 20.5619 392.344 19.6645 396.663 19.6645C404.471 19.6645 410.577 22.44 414.99 27.9909Z" fill="#1F1F1F"/>
<path fill-rule="evenodd" clip-rule="evenodd" d="M431.637 79.5122H447.053V0.328346H431.637V79.5122Z" fill="#1F1F1F"/>
<path fill-rule="evenodd" clip-rule="evenodd" d="M476.469 35.369C474.294 37.6019 472.917 40.6173 472.36 44.4258H498.937C498.642 40.3669 497.276 37.2889 494.817 35.1708C492.369 33.0735 489.321 32.0197 485.674 32.0197C481.713 32.0197 478.644 33.1361 476.469 35.369ZM499.536 22.1385C503.656 23.9644 507.05 26.8651 509.73 30.8092C512.147 34.2837 513.713 38.3112 514.427 42.9126C514.837 45.5942 515.016 49.4756 514.932 54.5257H471.982C472.224 60.4001 474.284 64.5215 478.151 66.89C480.505 68.3508 483.342 69.0812 486.653 69.0812C490.173 69.0812 493.021 68.1943 495.217 66.4101C496.405 65.4397 497.466 64.0937 498.391 62.3721H514.133C513.723 65.8466 511.811 69.3733 508.416 72.9626C503.13 78.6492 495.743 81.4977 486.232 81.4977C478.382 81.4977 471.447 79.0874 465.457 74.2878C459.456 69.4986 456.461 61.673 456.461 50.8425C456.461 40.7111 459.172 32.9273 464.574 27.512C469.996 22.1072 477.027 19.3943 485.665 19.3943C490.804 19.3943 495.427 20.3125 499.536 22.1385Z" fill="#1F1F1F"/>
<path fill-rule="evenodd" clip-rule="evenodd" d="M520.814 92.2469C523.914 91.3809 526.205 89.9515 527.655 87.9481C529.116 85.9448 529.957 83.1276 530.177 79.507H520.814V63.449H537.481V77.3471C537.481 79.7991 537.155 82.345 536.504 84.9953C535.863 87.6455 534.644 89.9306 532.878 91.8713C530.966 93.9373 528.727 95.5024 526.142 96.5666C523.567 97.6309 521.791 98.1422 520.814 98.1422V92.2469Z" fill="#1F1F1F"/>
<path fill-rule="evenodd" clip-rule="evenodd" d="M30.9778 117.986C31.7659 118.038 32.8588 118.121 34.225 118.215V130.684C33.3632 130.58 31.9025 130.496 29.8743 130.444C27.8251 130.381 26.417 130.83 25.6498 131.779C24.8722 132.739 24.4834 133.783 24.4834 134.931V139.876H34.6033V150.676H24.4834V197.889H9.17213V150.676H0.523438V139.876H8.95144V136.11C8.95144 129.849 10.0233 125.529 12.1461 123.161C14.3845 119.655 19.7859 117.902 28.3296 117.902C29.3069 117.902 30.1896 117.923 30.9778 117.986Z" fill="#1F1F1F"/>
<path fill-rule="evenodd" clip-rule="evenodd" d="M75.1566 169.422C74.1688 170.038 73.1809 170.518 72.1721 170.904C71.1633 171.28 69.7761 171.624 68.0212 171.947L64.5112 172.594C61.2325 173.158 58.8575 173.867 57.4284 174.681C55.0008 176.079 53.7923 178.249 53.7923 181.181C53.7923 183.8 54.5279 185.689 56.0097 186.858C57.4914 188.016 59.2989 188.6 61.4217 188.6C64.795 188.6 67.9056 187.63 70.7324 185.699C73.5803 183.759 75.041 180.232 75.1566 175.119V169.422ZM65.7289 162.265C68.5978 161.91 70.647 161.461 71.8765 160.939C74.0938 160 75.2078 158.55 75.2078 156.588C75.2078 154.178 74.3671 152.53 72.6647 151.611C70.9622 150.693 68.4612 150.245 65.1719 150.245C61.4834 150.245 58.8667 151.131 57.3324 152.926C56.229 154.251 55.5039 156.046 55.1361 158.3H40.2662C40.5815 153.177 42.0422 148.972 44.6063 145.674C48.6942 140.51 55.7246 137.932 65.6974 137.932C72.1813 137.932 77.94 139.205 82.9737 141.751C88.0074 144.297 90.5295 149.097 90.5295 156.15V183.018C90.5295 184.865 90.561 187.129 90.6346 189.779C90.7397 191.793 91.0444 193.139 91.5594 193.869C92.0533 194.579 92.8204 195.174 93.8187 195.643V197.897H77.0573C76.5844 196.707 76.2481 195.601 76.08 194.558C75.8908 193.525 75.7542 192.335 75.6491 191.01C73.5054 193.306 71.0358 195.267 68.2405 196.874C64.8987 198.773 61.1261 199.712 56.9226 199.712C51.5526 199.712 47.1179 198.21 43.6185 195.184C40.1191 192.158 38.3641 187.87 38.3641 182.308C38.3641 175.119 41.1805 169.902 46.8132 166.678C49.9027 164.925 54.4425 163.673 60.443 162.922L65.7289 162.265Z" fill="#1F1F1F"/>
<path fill-rule="evenodd" clip-rule="evenodd" d="M103.105 197.886H118.742V139.331H103.105V197.886ZM103.109 132.35H118.746V118.223H103.109V132.35Z" fill="#1F1F1F"/>
<path fill-rule="evenodd" clip-rule="evenodd" d="M144.636 179.194C144.962 181.917 145.676 183.847 146.759 185.005C148.682 187.04 152.234 188.062 157.415 188.062C160.462 188.062 162.879 187.614 164.676 186.716C166.463 185.83 167.367 184.484 167.367 182.689C167.367 180.967 166.641 179.663 165.202 178.766C163.752 177.868 158.382 176.335 149.071 174.154C142.366 172.495 137.637 170.439 134.895 167.967C132.162 165.525 130.796 162.019 130.796 157.439C130.796 152.023 132.929 147.38 137.217 143.499C141.494 139.617 147.526 137.677 155.302 137.677C162.669 137.677 168.68 139.127 173.325 142.038C177.97 144.97 180.639 150.01 181.322 157.178H165.895C165.685 155.195 165.128 153.641 164.224 152.493C162.522 150.416 159.632 149.383 155.544 149.383C152.181 149.383 149.775 149.895 148.356 150.938C146.927 151.982 146.202 153.192 146.202 154.601C146.202 156.353 146.969 157.626 148.482 158.409C150.006 159.233 155.366 160.652 164.582 162.645C170.729 164.085 175.332 166.255 178.401 169.146C181.438 172.088 182.951 175.761 182.951 180.164C182.951 185.965 180.765 190.702 176.415 194.375C172.053 198.048 165.328 199.874 156.227 199.874C146.938 199.874 140.065 197.933 135.651 194.052C131.216 190.17 129.01 185.214 129.01 179.194H144.636Z" fill="#1F1F1F"/>
<path fill-rule="evenodd" clip-rule="evenodd" d="M230.045 182.27C232.451 179.078 233.67 174.56 233.67 168.696C233.67 162.832 232.451 158.314 230.045 155.142C227.628 151.991 224.16 150.394 219.651 150.394C215.143 150.394 211.675 151.991 209.237 155.142C206.799 158.314 205.591 162.832 205.591 168.696C205.591 174.56 206.799 179.078 209.237 182.27C211.675 185.453 215.143 187.039 219.651 187.039C224.16 187.039 227.628 185.453 230.045 182.27ZM242.387 190.733C237.405 196.836 229.839 199.873 219.719 199.873C209.578 199.873 202.023 196.836 197.041 190.733C192.06 184.629 189.57 177.273 189.57 168.696C189.57 160.255 192.06 152.93 197.041 146.743C202.023 140.555 209.578 137.456 219.719 137.456C229.839 137.456 237.405 140.555 242.387 146.743C247.357 152.93 249.848 160.255 249.848 168.696C249.848 177.273 247.357 184.629 242.387 190.733Z" fill="#1F1F1F"/>
<path fill-rule="evenodd" clip-rule="evenodd" d="M307.438 142.694C311.294 145.866 313.239 151.125 313.239 158.46V197.891H297.433V162.269C297.433 159.191 297.024 156.822 296.204 155.184C294.691 152.169 291.832 150.677 287.597 150.677C282.406 150.677 278.843 152.878 276.92 157.271C275.911 159.608 275.407 162.571 275.407 166.192V197.891H259.991V139.439H274.924V147.985C276.899 144.98 278.759 142.809 280.525 141.484C283.688 139.116 287.692 137.937 292.547 137.937C298.61 137.937 303.581 139.523 307.438 142.694Z" fill="#1F1F1F"/>
<path fill-rule="evenodd" clip-rule="evenodd" d="M338.523 179.194C338.849 181.917 339.564 183.847 340.646 185.005C342.569 187.04 346.121 188.062 351.302 188.062C354.349 188.062 356.766 187.614 358.563 186.716C360.35 185.83 361.254 184.484 361.254 182.689C361.254 180.967 360.528 179.663 359.089 178.766C357.639 177.868 352.269 176.335 342.958 174.154C336.253 172.495 331.524 170.439 328.782 167.967C326.049 165.525 324.683 162.019 324.683 157.439C324.683 152.023 326.816 147.38 331.104 143.499C335.381 139.617 341.413 137.677 349.19 137.677C356.556 137.677 362.567 139.127 367.212 142.038C371.857 144.97 374.526 150.01 375.209 157.178H359.782C359.572 155.195 359.015 153.641 358.111 152.493C356.409 150.416 353.519 149.383 349.431 149.383C346.068 149.383 343.662 149.895 342.243 150.938C340.814 151.982 340.089 153.192 340.089 154.601C340.089 156.353 340.856 157.626 342.369 158.409C343.893 159.233 349.253 160.652 358.469 162.645C364.616 164.085 369.219 166.255 372.288 169.146C375.325 172.088 376.838 175.761 376.838 180.164C376.838 185.965 374.652 190.702 370.302 194.375C365.94 198.048 359.215 199.874 350.114 199.874C340.825 199.874 333.952 197.933 329.538 194.052C325.104 190.17 322.897 185.214 322.897 179.194H338.523Z" fill="#1F1F1F"/>
<path fill-rule="evenodd" clip-rule="evenodd" d="M451.308 181.262C453.778 178.559 455.028 174.25 455.028 168.344C455.028 162.783 453.841 158.568 451.497 155.667C449.143 152.766 445.991 151.316 442.04 151.316C436.649 151.316 432.939 153.841 430.89 158.881C429.807 161.573 429.271 164.891 429.271 168.835C429.271 172.236 429.839 175.262 430.995 177.912C433.086 182.848 436.817 185.321 442.208 185.321C445.802 185.321 448.828 183.975 451.308 181.262ZM446.052 139.286C449.793 140.819 452.83 143.657 455.132 147.768V139.327H470.17V194.888C470.17 202.432 468.898 208.129 466.334 211.959C461.931 218.553 453.492 221.85 441.018 221.85C433.473 221.85 427.325 220.379 422.565 217.447C417.805 214.515 415.167 210.122 414.662 204.279H431.424C431.865 206.074 432.569 207.368 433.547 208.15C435.207 209.548 437.992 210.247 441.922 210.247C447.481 210.247 451.201 208.411 453.072 204.717C454.301 202.349 454.921 198.373 454.921 192.781V189.025C453.429 191.529 451.853 193.417 450.161 194.669C447.092 196.996 443.099 198.154 438.191 198.154C430.615 198.154 424.572 195.515 420.043 190.235C415.514 184.955 413.254 177.798 413.254 168.772C413.254 160.07 415.43 152.756 419.791 146.829C424.152 140.903 430.331 137.94 438.328 137.94C441.281 137.94 443.856 138.388 446.052 139.286Z" fill="#1F1F1F"/>
<path fill-rule="evenodd" clip-rule="evenodd" d="M516.34 137.967C516.54 137.988 516.981 138.009 517.664 138.05V153.733C516.687 153.628 515.815 153.555 515.069 153.514C514.312 153.482 513.692 153.461 513.219 153.461C507.019 153.461 502.857 155.475 500.735 159.482C499.537 161.736 498.948 165.21 498.948 169.906V197.89H483.406V139.334H498.129V149.538C500.504 145.636 502.574 142.965 504.35 141.535C507.24 139.136 510.981 137.936 515.605 137.936C515.888 137.936 516.13 137.946 516.34 137.967Z" fill="#1F1F1F"/>
<path fill-rule="evenodd" clip-rule="evenodd" d="M558.371 169.422C557.384 170.038 556.396 170.518 555.387 170.904C554.378 171.28 552.991 171.624 551.236 171.947L547.726 172.594C544.447 173.158 542.072 173.867 540.643 174.681C538.216 176.079 537.007 178.249 537.007 181.181C537.007 183.8 537.743 185.689 539.224 186.858C540.706 188.016 542.514 188.6 544.636 188.6C548.01 188.6 551.12 187.63 553.947 185.699C556.795 183.759 558.256 180.232 558.371 175.119V169.422ZM548.948 162.265C551.817 161.91 553.866 161.461 555.096 160.939C557.313 160 558.427 158.55 558.427 156.588C558.427 154.178 557.586 152.53 555.884 151.611C554.181 150.693 551.68 150.245 548.391 150.245C544.702 150.245 542.086 151.131 540.551 152.926C539.448 154.251 538.723 156.046 538.355 158.3H523.485C523.801 153.177 525.261 148.972 527.825 145.674C531.913 140.51 538.944 137.932 548.916 137.932C555.4 137.932 561.159 139.205 566.193 141.751C571.226 144.297 573.749 149.097 573.749 156.15V183.018C573.749 184.865 573.78 187.129 573.854 189.779C573.959 191.793 574.263 193.139 574.778 193.869C575.272 194.579 576.039 195.174 577.038 195.643V197.897H560.276C559.803 196.707 559.467 195.601 559.299 194.558C559.11 193.525 558.973 192.335 558.868 191.01C556.724 193.306 554.255 195.267 551.46 196.874C548.118 198.773 544.345 199.712 540.142 199.712C534.772 199.712 530.337 198.21 526.838 195.184C523.338 192.158 521.583 187.87 521.583 182.308C521.583 175.119 524.4 169.902 530.032 166.678C533.122 164.925 537.662 163.673 543.662 162.922L548.948 162.265Z" fill="#1F1F1F"/>
<path fill-rule="evenodd" clip-rule="evenodd" d="M633.66 142.694C637.517 145.866 639.461 151.125 639.461 158.46V197.891H623.656V162.269C623.656 159.191 623.246 156.822 622.426 155.184C620.913 152.169 618.055 150.677 613.82 150.677C608.628 150.677 605.066 152.878 603.143 157.271C602.134 159.608 601.629 162.571 601.629 166.192V197.891H586.213V139.439H601.146V147.985C603.122 144.98 604.982 142.809 606.747 141.484C609.91 139.116 613.914 137.937 618.769 137.937C624.833 137.937 629.803 139.523 633.66 142.694Z" fill="#1F1F1F"/>
<path fill-rule="evenodd" clip-rule="evenodd" d="M687.856 181.986C690.126 178.762 691.261 174.599 691.261 169.475C691.261 162.307 689.432 157.184 685.796 154.106C683.558 152.238 680.962 151.32 678.009 151.32C673.501 151.32 670.18 153.011 668.078 156.391C665.966 159.772 664.905 163.966 664.905 168.995C664.905 174.39 665.987 178.73 668.131 181.965C670.275 185.21 673.532 186.827 677.904 186.827C682.265 186.827 685.575 185.22 687.856 181.986ZM684.073 140.281C686.836 141.825 689.096 143.985 690.83 146.75V118.808H706.467V197.887H691.481V189.78C689.274 193.255 686.763 195.78 683.957 197.355C681.141 198.931 677.641 199.713 673.459 199.713C666.576 199.713 660.775 196.959 656.067 191.418C651.348 185.888 649.005 178.783 649.005 170.112C649.005 160.126 651.317 152.259 655.962 146.541C660.586 140.803 666.786 137.933 674.541 137.933C678.114 137.933 681.288 138.726 684.073 140.281Z" fill="#1F1F1F"/>
<path fill-rule="evenodd" clip-rule="evenodd" d="M719.705 197.886H735.342V139.331H719.705V197.886ZM719.705 132.35H735.342V118.223H719.705V132.35Z" fill="#1F1F1F"/>
<path fill-rule="evenodd" clip-rule="evenodd" d="M782.034 137.967C782.233 137.988 782.675 138.009 783.358 138.05V153.733C782.381 153.628 781.508 153.555 780.762 153.514C780.006 153.482 779.386 153.461 778.913 153.461C772.713 153.461 768.551 155.475 766.428 159.482C765.23 161.736 764.642 165.21 764.642 169.906V197.89H749.099V139.334H763.822V149.538C766.197 145.636 768.267 142.965 770.043 141.535C772.933 139.136 776.674 137.936 781.298 137.936C781.582 137.936 781.824 137.946 782.034 137.967Z" fill="#1F1F1F"/>
<path fill-rule="evenodd" clip-rule="evenodd" d="M6.89692 316.271H22.3132V237.087H6.89692V316.271Z" fill="#1F1F1F"/>
<path fill-rule="evenodd" clip-rule="evenodd" d="M69.1575 287.803C68.1696 288.419 67.1818 288.899 66.173 289.285C65.1641 289.661 63.777 290.005 62.022 290.328L58.5121 290.975C55.2334 291.539 52.8584 292.248 51.4292 293.062C49.0017 294.46 47.7932 296.63 47.7932 299.562C47.7932 302.181 48.5288 304.07 50.0106 305.239C51.4923 306.397 53.2998 306.981 55.4226 306.981C58.7959 306.981 61.9064 306.011 64.7333 304.08C67.5812 302.14 69.0419 298.613 69.1575 293.5V287.803ZM59.7308 280.646C62.5996 280.291 64.6488 279.842 65.8784 279.321C68.0957 278.382 69.2096 276.931 69.2096 274.97C69.2096 272.559 68.3689 270.911 66.6665 269.993C64.9641 269.074 62.463 268.626 59.1738 268.626C55.4852 268.626 52.8685 269.513 51.3343 271.307C50.2309 272.632 49.5058 274.427 49.138 276.681H34.2681C34.5834 271.558 36.0441 267.353 38.6082 264.056C42.6961 258.891 49.7264 256.314 59.6992 256.314C66.1831 256.314 71.9419 257.587 76.9756 260.133C82.0093 262.678 84.5314 267.478 84.5314 274.531V301.399C84.5314 303.246 84.5629 305.51 84.6365 308.16C84.7415 310.174 85.0463 311.52 85.5612 312.25C86.0551 312.96 86.8223 313.555 87.8206 314.024V316.278H71.0592C70.5863 315.089 70.25 313.983 70.0819 312.939C69.8927 311.906 69.7561 310.717 69.651 309.392C67.5072 311.687 65.0377 313.649 62.2423 315.255C58.9006 317.154 55.1279 318.094 50.9244 318.094C45.5545 318.094 41.1198 316.591 37.6204 313.565C34.121 310.539 32.366 306.251 32.366 300.69C32.366 293.501 35.1824 288.284 40.815 285.059C43.9046 283.306 48.4444 282.054 54.4449 281.303L59.7308 280.646Z" fill="#1F1F1F"/>
<path fill-rule="evenodd" clip-rule="evenodd" d="M127.918 237.192H184.791V251.111H144.479V269.319H179.81V283.071H144.479V316.272H127.918V237.192Z" fill="#1F1F1F"/>
<path fill-rule="evenodd" clip-rule="evenodd" d="M227.455 256.432V272.114C226.477 272.01 225.605 271.937 224.859 271.895C224.102 271.864 223.482 271.843 223.009 271.843C216.809 271.843 212.648 273.856 210.525 277.863C209.327 280.117 208.739 283.591 208.739 288.287V316.271H193.196V257.715H207.919V267.919C210.294 264.017 212.364 261.346 214.14 259.917C217.03 257.517 220.771 256.317 225.395 256.317C225.679 256.317 225.92 256.327 226.131 256.348C226.33 256.369 226.772 256.39 227.455 256.432Z" fill="#1F1F1F"/>
<path fill-rule="evenodd" clip-rule="evenodd" d="M268.157 287.803C267.17 288.419 266.182 288.899 265.173 289.285C264.164 289.661 262.777 290.005 261.022 290.328L257.512 290.975C254.233 291.539 251.858 292.248 250.429 293.062C248.002 294.46 246.793 296.63 246.793 299.562C246.793 302.181 247.529 304.07 249.011 305.239C250.492 306.397 252.3 306.981 254.423 306.981C257.796 306.981 260.906 306.011 263.733 304.08C266.581 302.14 268.042 298.613 268.157 293.5V287.803ZM258.737 280.646C261.606 280.291 263.655 279.842 264.885 279.321C267.102 278.382 268.216 276.931 268.216 274.97C268.216 272.559 267.376 270.911 265.673 269.993C263.971 269.074 261.47 268.626 258.18 268.626C254.492 268.626 251.875 269.513 250.341 271.307C249.238 272.632 248.512 274.427 248.145 276.681H233.275C233.59 271.558 235.051 267.353 237.615 264.056C241.703 258.891 248.733 256.314 258.706 256.314C265.19 256.314 270.949 257.587 275.982 260.133C281.016 262.678 283.538 267.478 283.538 274.531V301.399C283.538 303.246 283.57 305.51 283.643 308.16C283.748 310.174 284.053 311.52 284.568 312.25C285.062 312.96 285.829 313.555 286.827 314.024V316.278H270.066C269.593 315.089 269.257 313.983 269.089 312.939C268.899 311.906 268.763 310.717 268.658 309.392C266.514 311.687 264.044 313.649 261.249 315.255C257.907 317.154 254.135 318.094 249.931 318.094C244.561 318.094 240.126 316.591 236.627 313.565C233.128 310.539 231.373 306.251 231.373 300.69C231.373 293.501 234.189 288.284 239.822 285.059C242.911 283.306 247.451 282.054 253.452 281.303L258.737 280.646Z" fill="#1F1F1F"/>
<path fill-rule="evenodd" clip-rule="evenodd" d="M343.45 261.076C347.307 264.248 349.251 269.507 349.251 276.842V316.272H333.446V280.65C333.446 277.572 333.036 275.204 332.217 273.565C330.703 270.55 327.845 269.058 323.61 269.058C318.419 269.058 314.856 271.26 312.933 275.652C311.924 277.99 311.42 280.953 311.42 284.573V316.272H296.004V257.821H310.936V266.366C312.912 263.361 314.772 261.191 316.538 259.866C319.701 257.497 323.705 256.318 328.56 256.318C334.623 256.318 339.594 257.904 343.45 261.076Z" fill="#1F1F1F"/>
<path fill-rule="evenodd" clip-rule="evenodd" d="M397.86 278.724C397.576 276.533 396.82 274.571 395.632 272.818C393.898 270.45 391.198 269.271 387.562 269.271C382.339 269.271 378.787 271.827 376.864 276.95C375.855 279.663 375.34 283.273 375.34 287.77C375.34 292.059 375.855 295.502 376.864 298.11C378.713 302.983 382.181 305.425 387.278 305.425C390.893 305.425 393.467 304.454 394.991 302.514C396.504 300.594 397.419 298.079 397.745 295.001H413.487C413.129 299.655 411.437 304.058 408.4 308.211C403.566 314.909 396.389 318.259 386.899 318.259C377.41 318.259 370.422 315.462 365.945 309.88C361.458 304.287 359.219 297.046 359.219 288.146C359.219 278.098 361.7 270.283 366.639 264.701C371.588 259.108 378.408 256.322 387.12 256.322C394.518 256.322 400.582 257.971 405.29 261.257C409.998 264.565 412.793 270.377 413.655 278.724H397.86Z" fill="#1F1F1F"/>
<path fill-rule="evenodd" clip-rule="evenodd" d="M438.463 272.132C436.288 274.364 434.911 277.38 434.355 281.188H460.931C460.637 277.129 459.271 274.051 456.812 271.933C454.363 269.836 451.316 268.782 447.669 268.782C443.707 268.782 440.639 269.899 438.463 272.132ZM461.535 258.901C465.654 260.727 469.048 263.628 471.728 267.572C474.145 271.047 475.711 275.074 476.426 279.676C476.835 282.357 477.014 286.239 476.93 291.289H433.981C434.222 297.163 436.282 301.284 440.149 303.653C442.503 305.114 445.341 305.844 448.651 305.844C452.171 305.844 455.019 304.957 457.216 303.173C458.403 302.203 459.464 300.857 460.389 299.135H476.131C475.721 302.61 473.809 306.136 470.415 309.726C465.129 315.412 457.741 318.261 448.231 318.261C440.381 318.261 433.445 315.85 427.455 311.051C421.454 306.262 418.459 298.436 418.459 287.605C418.459 277.474 421.171 269.69 426.572 264.275C431.995 258.87 439.025 256.157 447.663 256.157C452.802 256.157 457.426 257.075 461.535 258.901Z" fill="#1F1F1F"/>
</svg>
