<svg width="89" height="37" viewBox="0 0 89 37" fill="none" xmlns="http://www.w3.org/2000/svg">
<path fill-rule="evenodd" clip-rule="evenodd" d="M8.08228 1.77393H3.33389V3.67083H7.69328V5.22392H3.33389V7.52116H8.3022V9.12723H1.50241V0.191406H8.08228V1.77393Z" fill="#E30613"/>
<path fill-rule="evenodd" clip-rule="evenodd" d="M14.861 2.89862C15.2949 3.25657 15.5137 3.85002 15.5137 4.67778V9.12744H13.7354V5.10756C13.7354 4.7602 13.6893 4.49292 13.5971 4.30806C13.4268 3.96777 13.1052 3.79939 12.6287 3.79939C12.0446 3.79939 11.6438 4.04783 11.4274 4.54355C11.3139 4.8073 11.2572 5.14171 11.2572 5.55029V9.12744H9.52262V2.53125H11.2028V3.4956C11.425 3.15649 11.6343 2.91157 11.833 2.76204C12.1889 2.49475 12.6393 2.3617 13.1856 2.3617C13.8678 2.3617 14.4271 2.54067 14.861 2.89862Z" fill="#E30613"/>
<path fill-rule="evenodd" clip-rule="evenodd" d="M18.3585 7.01723C18.3951 7.32455 18.4755 7.54238 18.5973 7.67308C18.8137 7.90269 19.2133 8.01808 19.7962 8.01808C20.1391 8.01808 20.4111 7.96745 20.6133 7.86619C20.8143 7.7661 20.916 7.61421 20.916 7.41168C20.916 7.2174 20.8344 7.07022 20.6724 6.96895C20.5092 6.86769 19.905 6.6946 18.8574 6.44851C18.1031 6.26129 17.571 6.02933 17.2624 5.75027C16.955 5.47474 16.8013 5.07911 16.8013 4.5622C16.8013 3.9511 17.0413 3.42712 17.5237 2.9891C18.005 2.55108 18.6836 2.33207 19.5586 2.33207C20.3874 2.33207 21.0637 2.49574 21.5864 2.82426C22.109 3.15512 22.4093 3.72384 22.4861 4.53277H20.7504C20.7268 4.30905 20.6641 4.1336 20.5624 4.00408C20.3709 3.76976 20.0457 3.6532 19.5858 3.6532C19.2074 3.6532 18.9367 3.71089 18.777 3.82864C18.6162 3.94639 18.5347 4.08297 18.5347 4.24193C18.5347 4.43975 18.621 4.5834 18.7912 4.67171C18.9627 4.76473 19.5657 4.92486 20.6026 5.14976C21.2943 5.31225 21.8122 5.55717 22.1574 5.88333C22.4991 6.21537 22.6694 6.62984 22.6694 7.12673C22.6694 7.78141 22.4235 8.31598 21.934 8.73045C21.4433 9.14492 20.6866 9.35098 19.6626 9.35098C18.6174 9.35098 17.8442 9.13197 17.3476 8.69395C16.8486 8.25593 16.6003 7.69663 16.6003 7.01723H18.3585Z" fill="#E30613"/>
<path fill-rule="evenodd" clip-rule="evenodd" d="M25.5505 4.14633C25.3058 4.39831 25.1509 4.7386 25.0882 5.16838H28.0784C28.0453 4.71034 27.8916 4.36299 27.6149 4.12396C27.3395 3.88729 26.9966 3.76836 26.5863 3.76836C26.1405 3.76836 25.7953 3.89435 25.5505 4.14633ZM28.1464 2.65306C28.6099 2.85911 28.9918 3.18645 29.2933 3.63153C29.5653 4.02363 29.7414 4.47814 29.8218 4.9974C29.868 5.30001 29.8881 5.73803 29.8786 6.30792H25.0463C25.0735 6.97084 25.3052 7.43594 25.7403 7.70323C26.0052 7.86807 26.3244 7.9505 26.6968 7.9505C27.0929 7.9505 27.4134 7.85041 27.6605 7.64906C27.7941 7.53956 27.9135 7.38767 28.0176 7.19338H29.7887C29.7426 7.58548 29.5274 7.98347 29.1455 8.38852C28.5508 9.03024 27.7196 9.35169 26.6496 9.35169C25.7663 9.35169 24.986 9.07969 24.312 8.53805C23.6369 7.9976 23.2999 7.11449 23.2999 5.89228C23.2999 4.74895 23.605 3.87056 24.2127 3.25945C24.8228 2.64952 25.6138 2.34338 26.5857 2.34338C27.1639 2.34338 27.6841 2.447 28.1464 2.65306Z" fill="#E30613"/>
<path fill-rule="evenodd" clip-rule="evenodd" d="M38.9105 2.54336C39.1943 2.65757 39.4532 2.85539 39.6838 3.13798C39.8706 3.36759 39.9971 3.65018 40.0621 3.98694C40.1023 4.2083 40.1224 4.53328 40.1224 4.96306L40.1106 9.12777H38.3335V4.92067C38.3335 4.66987 38.2921 4.46381 38.2105 4.30132C38.0568 3.994 37.7731 3.84211 37.3592 3.84211C36.8792 3.84211 36.5493 4.03992 36.3672 4.43437C36.2738 4.64514 36.2253 4.8983 36.2253 5.19267V9.12777H34.479V5.19267C34.479 4.80057 34.4388 4.5168 34.3572 4.33782C34.2106 4.01873 33.9244 3.85859 33.4988 3.85859C33.0046 3.85859 32.6711 4.01873 32.5009 4.33782C32.4075 4.52033 32.3614 4.79115 32.3614 5.15028V9.12777H30.602V2.53158H32.2869V3.49593C32.5032 3.15211 32.7054 2.90837 32.8958 2.76237C33.2328 2.50332 33.6691 2.3738 34.2059 2.3738C34.7119 2.3738 35.1222 2.48448 35.4355 2.7082C35.6862 2.91308 35.8777 3.17801 36.0078 3.50064C36.2336 3.11325 36.5174 2.8283 36.8532 2.64697C37.2114 2.46564 37.6075 2.3738 38.0474 2.3738C38.3394 2.3738 38.6267 2.43032 38.9105 2.54336Z" fill="#E30613"/>
<path fill-rule="evenodd" clip-rule="evenodd" d="M45.8084 7.33938C46.0579 6.97908 46.1821 6.50691 46.1821 5.92053C46.1821 5.45072 46.1217 5.06333 45.9988 4.75719C45.7659 4.17434 45.3367 3.88351 44.71 3.88351C44.0751 3.88351 43.64 4.16846 43.4023 4.73835C43.2793 5.04214 43.219 5.43306 43.219 5.91464C43.219 6.48101 43.3456 6.94964 43.5986 7.32054C43.8528 7.69263 44.2394 7.87867 44.7585 7.87867C45.209 7.87867 45.5589 7.69969 45.8084 7.33938ZM47.2587 3.31359C47.7541 3.94001 48.0024 4.74893 48.0024 5.73918C48.0024 6.76594 47.7577 7.61489 47.2682 8.29076C46.7787 8.96545 46.0953 9.30338 45.2191 9.30338C44.6682 9.30338 44.2248 9.19388 43.8913 8.97605C43.6915 8.84653 43.474 8.62045 43.2422 8.29665V9.12794H41.5313V0.202714H43.267V3.38071C43.487 3.07339 43.7305 2.83907 43.9966 2.67658C44.3099 2.47523 44.7107 2.37397 45.1967 2.37397C46.0752 2.37397 46.7621 2.68718 47.2587 3.31359Z" fill="#E30613"/>
<path fill-rule="evenodd" clip-rule="evenodd" d="M49.1319 9.12771H50.8664V0.191884H49.1319V9.12771Z" fill="#E30613"/>
<path fill-rule="evenodd" clip-rule="evenodd" d="M54.1757 4.14633C53.931 4.39831 53.7761 4.7386 53.7134 5.16838H56.7036C56.6705 4.71034 56.5168 4.36299 56.2402 4.12396C55.9647 3.88729 55.6218 3.76836 55.2115 3.76836C54.7657 3.76836 54.4205 3.89435 54.1757 4.14633ZM56.7713 2.65306C57.2347 2.85911 57.6166 3.18645 57.9182 3.63153C58.1901 4.02363 58.3663 4.47814 58.4467 4.9974C58.4928 5.30001 58.5129 5.73803 58.5034 6.30792H53.6711C53.6983 6.97084 53.93 7.43594 54.3651 7.70323C54.63 7.86807 54.9492 7.9505 55.3217 7.9505C55.7178 7.9505 56.0382 7.85041 56.2853 7.64906C56.4189 7.53956 56.5383 7.38767 56.6424 7.19338H58.4136C58.3675 7.58548 58.1523 7.98347 57.7704 8.38852C57.1756 9.03024 56.3444 9.35169 55.2744 9.35169C54.3912 9.35169 53.6108 9.07969 52.9368 8.53805C52.2617 7.9976 51.9247 7.11449 51.9247 5.89228C51.9247 4.74895 52.2298 3.87056 52.8375 3.25945C53.4476 2.64952 54.2386 2.34338 55.2105 2.34338C55.7887 2.34338 56.309 2.447 56.7713 2.65306Z" fill="#E30613"/>
<path fill-rule="evenodd" clip-rule="evenodd" d="M59.1654 10.5648C59.5142 10.4671 59.7719 10.3057 59.9351 10.0797C60.0994 9.85359 60.194 9.53567 60.2188 9.12709H59.1654V7.31496H61.0406V8.88336C61.0406 9.16006 61.0039 9.44736 60.9306 9.74644C60.8585 10.0455 60.7213 10.3034 60.5227 10.5224C60.3075 10.7555 60.0557 10.9322 59.7648 11.0523C59.4751 11.1724 59.2753 11.2301 59.1654 11.2301V10.5648Z" fill="#E30613"/>
<path fill-rule="evenodd" clip-rule="evenodd" d="M4.05248 13.4693C4.14115 13.4752 4.26412 13.4846 4.41783 13.4952V14.9022C4.32087 14.8905 4.15653 14.8811 3.92833 14.8752C3.69777 14.8681 3.53933 14.9187 3.45302 15.0259C3.36552 15.1342 3.32177 15.252 3.32177 15.3815V15.9396H4.46039V17.1583H3.32177V22.4863H1.59906V17.1583H0.625977V15.9396H1.57424V15.5145C1.57424 14.808 1.69484 14.3206 1.93367 14.0533C2.18552 13.6577 2.79326 13.4598 3.75452 13.4598C3.86448 13.4598 3.9638 13.4622 4.05248 13.4693Z" fill="#E30613"/>
<path fill-rule="evenodd" clip-rule="evenodd" d="M9.0232 19.274C8.91206 19.3434 8.80092 19.3976 8.68741 19.4412C8.5739 19.4835 8.41783 19.5224 8.22037 19.5589L7.82546 19.6319C7.45657 19.6955 7.18935 19.7756 7.02855 19.8674C6.75542 20.0252 6.61945 20.2701 6.61945 20.601C6.61945 20.8965 6.70222 21.1096 6.86893 21.2415C7.03564 21.3722 7.23901 21.4381 7.47785 21.4381C7.85739 21.4381 8.20737 21.3286 8.52543 21.1108C8.84585 20.8918 9.0102 20.4938 9.0232 19.9169V19.274ZM7.96246 18.4661C8.28525 18.4261 8.51581 18.3755 8.65415 18.3166C8.90363 18.2106 9.02896 18.047 9.02896 17.8256C9.02896 17.5536 8.93437 17.3676 8.74283 17.2639C8.55128 17.1603 8.26988 17.1097 7.8998 17.1097C7.48479 17.1097 7.19038 17.2098 7.01775 17.4123C6.8936 17.5618 6.81202 17.7644 6.77064 18.0187H5.09759C5.13306 17.4406 5.29741 16.966 5.58591 16.594C6.04585 16.0111 6.83685 15.7203 7.95892 15.7203C8.68844 15.7203 9.33637 15.8639 9.90273 16.1512C10.4691 16.4385 10.7528 16.9802 10.7528 17.7761V20.8081C10.7528 21.0165 10.7564 21.2721 10.7647 21.5711C10.7765 21.7984 10.8108 21.9503 10.8687 22.0327C10.9243 22.1128 11.0106 22.1799 11.1229 22.2329V22.4872H9.23705C9.18385 22.353 9.14601 22.2282 9.1271 22.1104C9.10581 21.9938 9.09044 21.8596 9.07862 21.7101C8.83741 21.9691 8.55956 22.1905 8.24505 22.3718C7.86906 22.5861 7.44459 22.6921 6.97164 22.6921C6.36745 22.6921 5.86849 22.5225 5.47476 22.1811C5.08104 21.8396 4.88358 21.3557 4.88358 20.7281C4.88358 19.9168 5.20045 19.328 5.8342 18.9642C6.18182 18.7664 6.6926 18.6251 7.36773 18.5403L7.96246 18.4661Z" fill="#E30613"/>
<path fill-rule="evenodd" clip-rule="evenodd" d="M12.1677 22.4861H13.927V15.8781H12.1677V22.4861ZM12.1682 15.0905H13.9275V13.4962H12.1682V15.0905Z" fill="#E30613"/>
<path fill-rule="evenodd" clip-rule="evenodd" d="M16.8404 20.3768C16.877 20.6841 16.9574 20.9019 17.0792 21.0326C17.2956 21.2622 17.6952 21.3776 18.2781 21.3776C18.621 21.3776 18.893 21.327 19.0952 21.2257C19.2962 21.1256 19.3978 20.9737 19.3978 20.7712C19.3978 20.5769 19.3163 20.4298 19.1543 20.3285C18.9911 20.2272 18.3869 20.0541 17.3393 19.808C16.585 19.6208 16.0529 19.3889 15.7443 19.1098C15.4369 18.8343 15.2832 18.4387 15.2832 17.9217C15.2832 17.3106 15.5232 16.7867 16.0056 16.3486C16.4869 15.9106 17.1655 15.6916 18.0405 15.6916C18.8693 15.6916 19.5456 15.8553 20.0682 16.1838C20.5909 16.5147 20.8912 17.0834 20.968 17.8923H19.2323C19.2087 17.6686 19.146 17.4931 19.0443 17.3636C18.8528 17.1293 18.5276 17.0127 18.0677 17.0127C17.6893 17.0127 17.4186 17.0704 17.2589 17.1882C17.0981 17.3059 17.0166 17.4425 17.0166 17.6015C17.0166 17.7993 17.1029 17.9429 17.2731 18.0312C17.4446 18.1243 18.0476 18.2844 19.0845 18.5093C19.7762 18.6718 20.2941 18.9167 20.6393 19.2429C20.981 19.5749 21.1513 19.9894 21.1513 20.4863C21.1513 21.1409 20.9054 21.6755 20.4159 22.09C19.9252 22.5045 19.1685 22.7105 18.1445 22.7105C17.0993 22.7105 16.3261 22.4915 15.8295 22.0535C15.3305 21.6155 15.0822 21.0562 15.0822 20.3768H16.8404Z" fill="#E30613"/>
<path fill-rule="evenodd" clip-rule="evenodd" d="M26.4503 20.7238C26.721 20.3634 26.8582 19.8536 26.8582 19.1919C26.8582 18.5301 26.721 18.0203 26.4503 17.6623C26.1783 17.3067 25.7881 17.1266 25.2809 17.1266C24.7737 17.1266 24.3835 17.3067 24.1092 17.6623C23.8349 18.0203 23.6989 18.5301 23.6989 19.1919C23.6989 19.8536 23.8349 20.3634 24.1092 20.7238C24.3835 21.0829 24.7737 21.2619 25.2809 21.2619C25.7881 21.2619 26.1783 21.0829 26.4503 20.7238ZM27.8384 21.6786C27.278 22.3674 26.4267 22.7101 25.288 22.7101C24.1471 22.7101 23.2969 22.3674 22.7365 21.6786C22.1761 20.9898 21.8958 20.1597 21.8958 19.1918C21.8958 18.2392 22.1761 17.4126 22.7365 16.7144C23.2969 16.0162 24.1471 15.6664 25.288 15.6664C26.4267 15.6664 27.278 16.0162 27.8384 16.7144C28.3977 17.4126 28.6779 18.2392 28.6779 19.1918C28.6779 20.1597 28.3977 20.9898 27.8384 21.6786Z" fill="#E30613"/>
<path fill-rule="evenodd" clip-rule="evenodd" d="M35.1576 16.2577C35.5915 16.6156 35.8103 17.2091 35.8103 18.0368V22.4865H34.032V18.4666C34.032 18.1193 33.9859 17.852 33.8937 17.6671C33.7234 17.3268 33.4018 17.1584 32.9253 17.1584C32.3412 17.1584 31.9404 17.4069 31.724 17.9026C31.6105 18.1664 31.5538 18.5008 31.5538 18.9093V22.4865H29.8192V15.8903H31.4994V16.8547C31.7216 16.5155 31.9309 16.2706 32.1296 16.1211C32.4855 15.8538 32.9359 15.7208 33.4822 15.7208C34.1644 15.7208 34.7237 15.8997 35.1576 16.2577Z" fill="#E30613"/>
<path fill-rule="evenodd" clip-rule="evenodd" d="M38.6552 20.3768C38.6919 20.6841 38.7723 20.9019 38.8941 21.0326C39.1105 21.2622 39.5101 21.3776 40.093 21.3776C40.4359 21.3776 40.7078 21.327 40.91 21.2257C41.111 21.1256 41.2127 20.9737 41.2127 20.7712C41.2127 20.5769 41.1311 20.4298 40.9691 20.3285C40.806 20.2272 40.2018 20.0541 39.1542 19.808C38.3999 19.6208 37.8678 19.3889 37.5592 19.1098C37.2518 18.8343 37.0981 18.4387 37.0981 17.9217C37.0981 17.3106 37.3381 16.7867 37.8205 16.3486C38.3017 15.9106 38.9804 15.6916 39.8553 15.6916C40.6842 15.6916 41.3605 15.8553 41.8831 16.1838C42.4057 16.5147 42.706 17.0834 42.7829 17.8923H41.0472C41.0235 17.6686 40.9609 17.4931 40.8592 17.3636C40.6676 17.1293 40.3425 17.0127 39.8825 17.0127C39.5042 17.0127 39.2334 17.0704 39.0738 17.1882C38.913 17.3059 38.8314 17.4425 38.8314 17.6015C38.8314 17.7993 38.9177 17.9429 39.088 18.0312C39.2594 18.1243 39.8624 18.2844 40.8994 18.5093C41.5911 18.6718 42.1089 18.9167 42.4542 19.2429C42.7959 19.5749 42.9662 19.9894 42.9662 20.4863C42.9662 21.1409 42.7202 21.6755 42.2307 22.09C41.74 22.5045 40.9833 22.7105 39.9594 22.7105C38.9142 22.7105 38.1409 22.4915 37.6443 22.0535C37.1454 21.6155 36.8971 21.0562 36.8971 20.3768H38.6552Z" fill="#E30613"/>
<path fill-rule="evenodd" clip-rule="evenodd" d="M51.3451 20.61C51.6229 20.3051 51.7636 19.8188 51.7636 19.1523C51.7636 18.5247 51.63 18.049 51.3664 17.7217C51.1015 17.3944 50.7468 17.2307 50.3022 17.2307C49.6957 17.2307 49.2783 17.5156 49.0477 18.0844C48.9259 18.3882 48.8656 18.7626 48.8656 19.2077C48.8656 19.5915 48.9295 19.933 49.0596 20.2321C49.2948 20.789 49.7146 21.0681 50.3211 21.0681C50.7255 21.0681 51.066 20.9162 51.3451 20.61ZM50.7537 15.8728C51.1746 16.0459 51.5163 16.3662 51.7753 16.8301V15.8775H53.4672V22.1475C53.4672 22.9989 53.3242 23.6418 53.0357 24.0739C52.5402 24.8181 51.5908 25.1901 50.1873 25.1901C49.3384 25.1901 48.6467 25.0241 48.1111 24.6932C47.5755 24.3624 47.2787 23.8667 47.222 23.2073H49.1078C49.1575 23.4098 49.2367 23.5558 49.3467 23.6441C49.5335 23.8019 49.8468 23.8808 50.289 23.8808C50.9145 23.8808 51.3331 23.6736 51.5435 23.2567C51.6819 22.9894 51.7516 22.5408 51.7516 21.9097V21.4858C51.5837 21.7684 51.4064 21.9815 51.216 22.1228C50.8707 22.3854 50.4214 22.5161 49.8693 22.5161C49.0168 22.5161 48.3369 22.2182 47.8273 21.6224C47.3177 21.0266 47.0635 20.2189 47.0635 19.2003C47.0635 18.2183 47.3083 17.3929 47.799 16.7241C48.2896 16.0553 48.9849 15.7209 49.8847 15.7209C50.2169 15.7209 50.5066 15.7715 50.7537 15.8728Z" fill="#E30613"/>
<path fill-rule="evenodd" clip-rule="evenodd" d="M58.6619 15.7241C58.6843 15.7265 58.734 15.7288 58.8108 15.7335V17.5033C58.7009 17.4915 58.6027 17.4833 58.5188 17.4786C58.4337 17.475 58.3639 17.4727 58.3107 17.4727C57.6131 17.4727 57.1449 17.6999 56.906 18.1521C56.7713 18.4064 56.705 18.7985 56.705 19.3284V22.4863H54.9563V15.8784H56.6128V17.0299C56.88 16.5896 57.113 16.2881 57.3128 16.1268C57.6379 15.856 58.0589 15.7206 58.5791 15.7206C58.611 15.7206 58.6382 15.7218 58.6619 15.7241Z" fill="#E30613"/>
<path fill-rule="evenodd" clip-rule="evenodd" d="M63.3912 19.274C63.28 19.3434 63.1689 19.3976 63.0554 19.4412C62.9419 19.4835 62.7858 19.5224 62.5883 19.5589L62.1934 19.6319C61.8245 19.6955 61.5573 19.7756 61.3965 19.8674C61.1234 20.0252 60.9874 20.2701 60.9874 20.601C60.9874 20.8965 61.0702 21.1096 61.2369 21.2415C61.4036 21.3722 61.607 21.4381 61.8458 21.4381C62.2254 21.4381 62.5753 21.3286 62.8934 21.1108C63.2138 20.8918 63.3782 20.4938 63.3912 19.9169V19.274ZM62.3306 18.4661C62.6533 18.4261 62.8839 18.3755 63.0222 18.3166C63.2717 18.2106 63.3971 18.047 63.3971 17.8256C63.3971 17.5536 63.3025 17.3676 63.1109 17.2639C62.9194 17.1603 62.638 17.1097 62.2679 17.1097C61.8529 17.1097 61.5585 17.2098 61.3858 17.4123C61.2617 17.5618 61.1801 17.7644 61.1387 18.0187H59.4657C59.5012 17.4406 59.6655 16.966 59.954 16.594C60.4139 16.0111 61.2049 15.7203 62.327 15.7203C63.0565 15.7203 63.7045 15.8639 64.2708 16.1512C64.8372 16.4385 65.1209 16.9802 65.1209 17.7761V20.8081C65.1209 21.0165 65.1245 21.2721 65.1328 21.5711C65.1446 21.7984 65.1789 21.9503 65.2368 22.0327C65.2924 22.1128 65.3787 22.1799 65.491 22.2329V22.4872H63.6052C63.5519 22.353 63.5141 22.2282 63.4952 22.1104C63.4739 21.9938 63.4585 21.8596 63.4467 21.7101C63.2055 21.9691 62.9277 22.1905 62.6131 22.3718C62.2371 22.5861 61.8127 22.6921 61.3397 22.6921C60.7355 22.6921 60.2366 22.5225 59.8429 22.1811C59.4491 21.8396 59.2517 21.3557 59.2517 20.7281C59.2517 19.9168 59.5686 19.328 60.2023 18.9642C60.5499 18.7664 61.0607 18.6251 61.7358 18.5403L62.3306 18.4661Z" fill="#E30613"/>
<path fill-rule="evenodd" clip-rule="evenodd" d="M71.8621 16.2577C72.296 16.6156 72.5147 17.2091 72.5147 18.0368V22.4865H70.7364V18.4666C70.7364 18.1193 70.6903 17.852 70.5981 17.6671C70.4278 17.3268 70.1062 17.1584 69.6297 17.1584C69.0457 17.1584 68.6448 17.4069 68.4285 17.9026C68.315 18.1664 68.2582 18.5008 68.2582 18.9093V22.4865H66.5237V15.8903H68.2038V16.8547C68.4261 16.5155 68.6354 16.2706 68.834 16.1211C69.1899 15.8538 69.6404 15.7208 70.1866 15.7208C70.8689 15.7208 71.4281 15.8997 71.8621 16.2577Z" fill="#E30613"/>
<path fill-rule="evenodd" clip-rule="evenodd" d="M77.9596 20.6918C78.215 20.328 78.3427 19.8582 78.3427 19.2801C78.3427 18.4711 78.1369 17.893 77.7278 17.5456C77.476 17.3349 77.1839 17.2313 76.8517 17.2313C76.3445 17.2313 75.9708 17.422 75.7344 17.8035C75.4967 18.185 75.3773 18.6583 75.3773 19.2259C75.3773 19.8346 75.4991 20.3245 75.7403 20.6895C75.9815 21.0557 76.348 21.2382 76.8399 21.2382C77.3306 21.2382 77.703 21.0569 77.9596 20.6918ZM77.5339 15.9855C77.8448 16.1598 78.099 16.4035 78.2941 16.7155V13.5623H80.0535V22.4863H78.3674V21.5714C78.1191 21.9635 77.8365 22.2485 77.5208 22.4263C77.204 22.6041 76.8102 22.6924 76.3397 22.6924C75.5652 22.6924 74.9125 22.3815 74.3829 21.7563C73.852 21.1322 73.5883 20.3304 73.5883 19.3519C73.5883 18.225 73.8484 17.3372 74.371 16.692C74.8913 16.0444 75.5889 15.7206 76.4614 15.7206C76.8634 15.7206 77.2205 15.81 77.5339 15.9855Z" fill="#E30613"/>
<path fill-rule="evenodd" clip-rule="evenodd" d="M81.5428 22.4861H83.3022V15.8781H81.5428V22.4861ZM81.5437 15.0905H83.303V13.4962H81.5437V15.0905Z" fill="#E30613"/>
<path fill-rule="evenodd" clip-rule="evenodd" d="M88.5557 15.7241C88.5782 15.7265 88.6278 15.7288 88.7047 15.7335V17.5033C88.5947 17.4915 88.4966 17.4833 88.4126 17.4786C88.3275 17.475 88.2578 17.4727 88.2045 17.4727C87.5069 17.4727 87.0387 17.6999 86.7999 18.1521C86.6651 18.4064 86.5989 18.7985 86.5989 19.3284V22.4863H84.8502V15.8784H86.5067V17.0299C86.7739 16.5896 87.0068 16.2881 87.2066 16.1268C87.5318 15.856 87.9527 15.7206 88.4729 15.7206C88.5049 15.7206 88.5321 15.7218 88.5557 15.7241Z" fill="#E30613"/>
<path fill-rule="evenodd" clip-rule="evenodd" d="M1.34298 35.8455H3.07752V26.9097H1.34298V35.8455Z" fill="#E30613"/>
<path fill-rule="evenodd" clip-rule="evenodd" d="M8.34784 32.6331C8.2367 32.7026 8.12556 32.7567 8.01205 32.8003C7.89854 32.8427 7.74247 32.8816 7.54502 32.9181L7.1501 32.9911C6.78121 33.0546 6.51399 33.1347 6.35319 33.2266C6.08006 33.3843 5.94409 33.6292 5.94409 33.9601C5.94409 34.2557 6.02686 34.4688 6.19357 34.6007C6.36028 34.7314 6.56365 34.7973 6.80249 34.7973C7.18203 34.7973 7.53201 34.6878 7.85007 34.47C8.17049 34.251 8.33484 33.853 8.34784 33.276V32.6331ZM7.28734 31.8252C7.61013 31.7852 7.84069 31.7345 7.97903 31.6757C8.22851 31.5697 8.35384 31.406 8.35384 31.1847C8.35384 30.9127 8.25925 30.7266 8.06771 30.623C7.87616 30.5194 7.59476 30.4688 7.22468 30.4688C6.80967 30.4688 6.51526 30.5688 6.34263 30.7714C6.21848 30.9209 6.1369 31.1234 6.09552 31.3778H4.42247C4.45794 30.7996 4.62229 30.3251 4.91079 29.953C5.37073 29.3702 6.16173 29.0793 7.2838 29.0793C8.01332 29.0793 8.66125 29.223 9.22761 29.5103C9.79396 29.7976 10.0777 30.3392 10.0777 31.1352V34.1672C10.0777 34.3756 10.0813 34.6311 10.0896 34.9302C10.1014 35.1574 10.1357 35.3093 10.1936 35.3918C10.2492 35.4718 10.3355 35.5389 10.4478 35.5919V35.8463H8.56193C8.50873 35.712 8.47089 35.5872 8.45197 35.4695C8.43069 35.3529 8.41532 35.2187 8.4035 35.0691C8.16229 35.3282 7.88444 35.5495 7.56993 35.7309C7.19394 35.9452 6.76947 36.0511 6.29652 36.0511C5.69233 36.0511 5.19337 35.8816 4.79964 35.5401C4.40592 35.1987 4.20846 34.7147 4.20846 34.0871C4.20846 33.2758 4.52533 32.6871 5.15908 32.3233C5.5067 32.1255 6.01748 31.9842 6.69261 31.8994L7.28734 31.8252Z" fill="#E30613"/>
<path fill-rule="evenodd" clip-rule="evenodd" d="M14.9594 26.9218H21.3584V28.4925H16.8228V30.5472H20.7979V32.0991H16.8228V35.8458H14.9594V26.9218Z" fill="#E30613"/>
<path fill-rule="evenodd" clip-rule="evenodd" d="M26.1584 29.0929V30.8627C26.0484 30.8509 25.9503 30.8426 25.8663 30.8379C25.7812 30.8344 25.7115 30.8321 25.6582 30.8321C24.9607 30.8321 24.4924 31.0593 24.2536 31.5114C24.1188 31.7658 24.0526 32.1579 24.0526 32.6877V35.8457H22.3039V29.2378H23.9604V30.3893C24.2276 29.9489 24.4605 29.6475 24.6603 29.4862C24.9855 29.2154 25.4064 29.08 25.9266 29.08C25.9586 29.08 25.9858 29.0812 26.0094 29.0835C26.0319 29.0859 26.0815 29.0882 26.1584 29.0929Z" fill="#E30613"/>
<path fill-rule="evenodd" clip-rule="evenodd" d="M30.7381 32.6331C30.627 32.7026 30.5159 32.7567 30.4023 32.8003C30.2888 32.8427 30.1328 32.8816 29.9353 32.9181L29.5404 32.9911C29.1715 33.0546 28.9043 33.1347 28.7435 33.2266C28.4704 33.3843 28.3344 33.6292 28.3344 33.9601C28.3344 34.2557 28.4172 34.4688 28.5839 34.6007C28.7506 34.7314 28.954 34.7973 29.1928 34.7973C29.5723 34.7973 29.9223 34.6878 30.2404 34.47C30.5608 34.251 30.7251 33.853 30.7381 33.276V32.6331ZM29.6783 31.8252C30.001 31.7852 30.2316 31.7345 30.3699 31.6757C30.6194 31.5697 30.7448 31.406 30.7448 31.1847C30.7448 30.9127 30.6502 30.7266 30.4586 30.623C30.2671 30.5194 29.9857 30.4688 29.6156 30.4688C29.2006 30.4688 28.9062 30.5688 28.7336 30.7714C28.6094 30.9209 28.5278 31.1234 28.4864 31.3778H26.8134C26.8489 30.7996 27.0132 30.3251 27.3017 29.953C27.7616 29.3702 28.5526 29.0793 29.6747 29.0793C30.4042 29.0793 31.0522 29.223 31.6185 29.5103C32.1849 29.7976 32.4686 30.3392 32.4686 31.1352V34.1672C32.4686 34.3756 32.4722 34.6311 32.4805 34.9302C32.4923 35.1574 32.5266 35.3093 32.5845 35.3918C32.6401 35.4718 32.7264 35.5389 32.8387 35.5919V35.8463H30.9529C30.8996 35.712 30.8618 35.5872 30.8429 35.4695C30.8216 35.3529 30.8062 35.2187 30.7944 35.0691C30.5532 35.3282 30.2754 35.5495 29.9608 35.7309C29.5849 35.9452 29.1604 36.0511 28.6874 36.0511C28.0833 36.0511 27.5843 35.8816 27.1906 35.5401C26.7968 35.1987 26.5994 34.7147 26.5994 34.0871C26.5994 33.2758 26.9163 32.6871 27.55 32.3233C27.8976 32.1255 28.4084 31.9842 29.0835 31.8994L29.6783 31.8252Z" fill="#E30613"/>
<path fill-rule="evenodd" clip-rule="evenodd" d="M39.2096 29.6169C39.6435 29.9749 39.8623 30.5683 39.8623 31.3961V35.8457H38.084V31.8258C38.084 31.4785 38.0379 31.2112 37.9457 31.0263C37.7754 30.686 37.4538 30.5177 36.9773 30.5177C36.3932 30.5177 35.9924 30.7661 35.776 31.2618C35.6625 31.5256 35.6057 31.86 35.6057 32.2686V35.8457H33.8712V29.2495H35.5514V30.2139C35.7736 29.8748 35.9829 29.6299 36.1816 29.4803C36.5374 29.213 36.9879 29.08 37.5342 29.08C38.2164 29.08 38.7757 29.2589 39.2096 29.6169Z" fill="#E30613"/>
<path fill-rule="evenodd" clip-rule="evenodd" d="M45.3315 31.6085C45.2996 31.3612 45.2144 31.1398 45.0808 30.942C44.8857 30.6747 44.5819 30.5417 44.1728 30.5417C43.5851 30.5417 43.1855 30.8302 42.9691 31.4083C42.8556 31.7145 42.7977 32.1219 42.7977 32.6293C42.7977 33.1133 42.8556 33.5019 42.9691 33.7962C43.1772 34.3461 43.5674 34.6216 44.1409 34.6216C44.5476 34.6216 44.8373 34.5121 45.0087 34.2931C45.179 34.0765 45.2818 33.7927 45.3185 33.4453H47.0897C47.0495 33.9705 46.8591 34.4674 46.5174 34.936C45.9735 35.692 45.166 36.0699 44.0983 36.0699C43.0306 36.0699 42.2443 35.7544 41.7407 35.1244C41.2358 34.4933 40.9839 33.6761 40.9839 32.6717C40.9839 31.5378 41.263 30.6559 41.8187 30.026C42.3756 29.3948 43.1429 29.0805 44.1231 29.0805C44.9555 29.0805 45.6377 29.2665 46.1674 29.6374C46.6971 30.0107 47.0116 30.6665 47.1086 31.6085H45.3315Z" fill="#E30613"/>
<path fill-rule="evenodd" clip-rule="evenodd" d="M49.8998 30.8647C49.6551 31.1167 49.5002 31.457 49.4375 31.8868H52.4277C52.3946 31.4287 52.2409 31.0814 51.9642 30.8423C51.6887 30.6057 51.3459 30.4867 50.9356 30.4867C50.4898 30.4867 50.1446 30.6127 49.8998 30.8647ZM52.4955 29.3718C52.959 29.5779 53.3409 29.9052 53.6424 30.3503C53.9143 30.7424 54.0905 31.1969 54.1709 31.7162C54.217 32.0188 54.2371 32.4568 54.2277 33.0267H49.3953C49.4225 33.6896 49.6543 34.1547 50.0894 34.422C50.3542 34.5868 50.6735 34.6693 51.0459 34.6693C51.442 34.6693 51.7624 34.5692 52.0095 34.3678C52.1432 34.2583 52.2626 34.1064 52.3666 33.9121H54.1378C54.0917 34.3042 53.8765 34.7022 53.4946 35.1073C52.8999 35.749 52.0687 36.0704 50.9986 36.0704C50.1154 36.0704 49.335 35.7984 48.6611 35.2568C47.9859 34.7164 47.649 33.8332 47.649 32.611C47.649 31.4677 47.954 30.5893 48.5618 29.9782C49.1719 29.3683 49.9629 29.0621 50.9348 29.0621C51.513 29.0621 52.0332 29.1658 52.4955 29.3718Z" fill="#E30613"/>
</svg>
