<svg width="65" height="64" viewBox="0 0 65 64" fill="none" xmlns="http://www.w3.org/2000/svg">
<path fill-rule="evenodd" clip-rule="evenodd" d="M0.0175781 64.0151H64.0176V0.191406H0.0175781V64.0151Z" fill="#E30613"/>
<path fill-rule="evenodd" clip-rule="evenodd" d="M8.16727 34.374C6.73484 34.374 6.09659 35.5446 6.09659 36.9987C6.09659 38.2743 6.65952 39.5591 8.16727 39.5591C9.20064 39.5591 9.76885 38.878 9.89835 37.8452H11.5211C11.3361 39.8937 9.92478 40.962 8.16727 40.962C5.81645 40.962 4.41969 39.2218 4.41969 36.9987C4.41969 34.6522 5.88252 32.9593 8.16727 32.9593C9.91949 32.9593 11.266 34.0171 11.4563 35.7139H9.8336C9.71996 34.9462 8.98128 34.374 8.16727 34.374Z" fill="white"/>
<path fill-rule="evenodd" clip-rule="evenodd" d="M15.7281 38.6479C15.7281 39.6046 15.1942 39.9222 14.4978 39.9222C14.0248 39.9222 13.5702 39.787 13.5702 39.2162C13.5702 38.8277 13.7591 38.5259 14.4688 38.4012C14.589 38.3802 14.7093 38.3631 14.8308 38.3474C15.1215 38.3198 15.5735 38.2345 15.7281 38.0784V38.6479ZM17.2422 39.5575V36.677C17.2422 35.2386 15.6789 35.1022 14.82 35.1022C13.6479 35.1022 12.3106 35.5037 12.226 36.9552H13.7417C13.8012 36.32 14.1857 36.1205 14.746 36.1205C15.2732 36.1205 15.7278 36.2295 15.7278 36.8699C15.745 37.2334 15.4649 37.4289 14.5967 37.5129C14.376 37.5326 14.1513 37.5628 13.9241 37.5982C13.0334 37.7386 12.0542 38.0011 12.0542 39.278C12.0542 40.3554 12.7982 40.9302 13.9346 40.9302C14.5187 40.9302 15.2957 40.7911 15.7926 40.2557C15.7979 40.3856 15.8494 40.6586 15.8983 40.7911H17.4364C17.2739 40.5313 17.2422 39.9604 17.2422 39.5575Z" fill="white"/>
<path fill-rule="evenodd" clip-rule="evenodd" d="M18.3218 40.7905H19.8375V35.2511H18.3218V40.7905ZM18.3222 34.3947H19.8379V33.1414H18.3222V34.3947Z" fill="white"/>
<path fill-rule="evenodd" clip-rule="evenodd" d="M24.1898 39.2146C24.1898 39.0873 24.1422 38.9757 24.0471 38.8839C23.508 38.3655 21.769 38.4679 21.0514 37.7382C20.8479 37.5322 20.7184 37.2579 20.7184 36.8812C20.7184 35.733 21.5377 35.1017 23.1208 35.1017C24.1581 35.1017 25.4359 35.4141 25.5562 36.8694H24.1145C24.092 36.2854 23.6269 36.1214 23.0785 36.1214C22.6992 36.1214 22.2341 36.1988 22.2341 36.6345C22.2341 36.9967 22.6186 37.1726 23.3256 37.3209C23.5317 37.3616 23.7418 37.4088 23.9546 37.4587C24.8241 37.6555 25.7042 37.9797 25.7042 39.0125C25.7042 40.145 24.8955 40.9311 23.1855 40.9311C21.8033 40.9311 20.6431 40.3944 20.5902 38.9902H22.0319C22.0319 39.607 22.5552 39.9219 23.1961 39.9219C23.5978 39.9219 24.1898 39.7579 24.1898 39.2146Z" fill="white"/>
<path fill-rule="evenodd" clip-rule="evenodd" d="M19.1555 50.3102C19.5572 50.3102 20.1492 50.1462 20.1492 49.6029C20.1492 49.473 20.1017 49.3627 20.0052 49.2722C19.4674 48.7525 17.727 48.8549 17.0108 48.1265C16.806 47.9192 16.6778 47.6436 16.6778 47.2682C16.6778 46.12 17.4971 45.49 19.0802 45.49C20.1162 45.49 21.3953 45.8011 21.5156 47.2578H20.0739C20.0514 46.6738 19.5863 46.5084 19.0379 46.5084C18.6587 46.5084 18.1922 46.5871 18.1922 47.0215C18.1922 47.385 18.5767 47.5609 19.285 47.7079C19.4912 47.7499 19.6999 47.7971 19.914 47.847C20.7835 48.0425 21.6636 48.3667 21.6636 49.3995C21.6636 50.5333 20.8549 51.3181 19.1449 51.3181C17.7627 51.3181 16.6025 50.7814 16.5496 49.3785H17.9913C17.9913 49.994 18.5146 50.3102 19.1555 50.3102Z" fill="white"/>
<path fill-rule="evenodd" clip-rule="evenodd" d="M56.649 50.3102C57.0507 50.3102 57.6414 50.1462 57.6414 49.6029C57.6414 49.473 57.5938 49.3627 57.4987 49.2722C56.9595 48.7525 55.2205 48.8549 54.503 48.1265C54.2995 47.9192 54.1713 47.6436 54.1713 47.2682C54.1713 46.12 54.9893 45.49 56.5724 45.49C57.6097 45.49 58.8875 45.8011 59.0091 47.2578H57.5661C57.5449 46.6738 57.0785 46.5084 56.5314 46.5084C56.1508 46.5084 55.6857 46.5871 55.6857 47.0215C55.6857 47.385 56.0702 47.5609 56.7772 47.7079C56.9833 47.7499 57.1934 47.7971 57.4062 47.847C58.2757 48.0425 59.1558 48.3667 59.1558 49.3995C59.1558 50.5333 58.3484 51.3181 56.6371 51.3181C55.2536 51.3181 54.0947 50.7814 54.0431 49.3785H55.4848C55.4848 49.994 56.0068 50.3102 56.649 50.3102Z" fill="white"/>
<path fill-rule="evenodd" clip-rule="evenodd" d="M28.8575 39.9219C29.2592 39.9219 29.8499 39.7579 29.8499 39.2146C29.8499 39.0873 29.8023 38.9757 29.7071 38.8839C29.1693 38.3655 27.429 38.4679 26.7114 37.7382C26.5079 37.5322 26.3798 37.2579 26.3798 36.8812C26.3798 35.733 27.1977 35.1017 28.7821 35.1017C29.8181 35.1017 31.096 35.4141 31.2175 36.8694H29.7745C29.7534 36.2854 29.2869 36.1214 28.7398 36.1214C28.3593 36.1214 27.8941 36.1988 27.8941 36.6345C27.8941 36.9967 28.2787 37.1726 28.9856 37.3209C29.1918 37.3616 29.4019 37.4088 29.6146 37.4587C30.4841 37.6555 31.3642 37.9797 31.3642 39.0125C31.3642 40.145 30.5568 40.9311 28.8456 40.9311C27.4633 40.9311 26.3044 40.3944 26.2516 38.9902H27.6933C27.6933 39.607 28.2152 39.9219 28.8575 39.9219Z" fill="white"/>
<path fill-rule="evenodd" clip-rule="evenodd" d="M34.693 36.2477C33.8949 36.2477 33.476 36.7726 33.4337 37.4262H35.8995C35.7555 36.6453 35.4264 36.2477 34.693 36.2477ZM34.7893 39.7936C35.3984 39.7936 35.8847 39.4196 35.9852 39.0758H37.3198C36.8481 40.5456 35.8147 40.9288 34.7351 40.9288C32.9036 40.9288 31.9151 39.6519 31.9151 38.0259C31.9151 36.3435 33.0833 35.102 34.7351 35.102C36.7278 35.102 37.5193 36.8343 37.4163 38.392H33.4335C33.4771 39.4052 33.9647 39.7936 34.7893 39.7936Z" fill="white"/>
<path fill-rule="evenodd" clip-rule="evenodd" d="M13.345 46.636C12.5469 46.636 12.128 47.1597 12.0857 47.8132H14.5515C14.4075 47.0324 14.0784 46.636 13.345 46.636ZM13.4414 50.1819C14.0506 50.1819 14.5369 49.8079 14.6387 49.4641H15.972C15.5002 50.9326 14.4669 51.3158 13.3873 51.3158C11.5558 51.3158 10.5673 50.0389 10.5673 48.4129C10.5673 46.7318 11.7368 45.489 13.3873 45.489C15.38 45.489 16.1715 47.2226 16.0684 48.779H12.0856C12.1293 49.7935 12.6169 50.1819 13.4414 50.1819Z" fill="white"/>
<path fill-rule="evenodd" clip-rule="evenodd" d="M7.20609 46.636C6.27052 46.636 5.87144 47.4129 5.87144 48.4037C5.87144 49.241 6.24277 50.1819 7.20609 50.1819C8.20642 50.1819 8.50902 49.3014 8.50902 48.3932C8.50902 47.4969 8.18924 46.636 7.20609 46.636ZM8.50873 50.4707C8.15195 51.073 7.55598 51.3158 6.83316 51.3158C5.14172 51.3158 4.35547 49.8906 4.35547 48.3591C4.35547 46.7463 5.27915 45.489 6.7988 45.489C7.4463 45.489 8.08852 45.7659 8.43473 46.3145H8.45587V43.5297H9.97288V51.178H8.5312V50.4707H8.50873Z" fill="white"/>
<path fill-rule="evenodd" clip-rule="evenodd" d="M27.7838 49.7645C28.9255 49.7645 29.6827 48.981 29.6827 47.4718C29.6827 46.0676 29.2387 44.9443 27.4838 44.9443H26.2892V49.7645H27.7838ZM27.901 43.5296C29.8303 43.5296 31.3605 44.733 31.3605 47.3117C31.3605 49.6004 30.1593 51.1779 27.901 51.1779H24.6133V43.5296H27.901Z" fill="white"/>
<path fill-rule="evenodd" clip-rule="evenodd" d="M34.6983 46.636C33.9001 46.636 33.4812 47.1597 33.439 47.8132H35.9048C35.7607 47.0324 35.4317 46.636 34.6983 46.636ZM34.7945 50.1819C35.4037 50.1819 35.8887 49.8079 35.9904 49.4641H37.3251C36.852 50.9326 35.82 51.3158 34.7403 51.3158C32.9088 51.3158 31.9204 50.0389 31.9204 48.4129C31.9204 46.7318 33.0886 45.489 34.7403 45.489C36.7331 45.489 37.5246 47.2226 37.4215 48.779H33.4387C33.4823 49.7935 33.9699 50.1819 34.7945 50.1819Z" fill="white"/>
<path fill-rule="evenodd" clip-rule="evenodd" d="M35.0078 42.7683L33.8766 44.6647H34.9324L36.6741 42.7683H35.0078Z" fill="white"/>
<path fill-rule="evenodd" clip-rule="evenodd" d="M42.1398 48.4253C42.1398 47.4135 41.6997 46.6366 40.8157 46.6366C39.9647 46.6366 39.5022 47.3072 39.5022 48.4253C39.5022 49.3886 39.8854 50.1825 40.8263 50.1825C41.7592 50.1825 42.1398 49.4174 42.1398 48.4253ZM39.48 45.6391V46.3477H39.5025C39.8804 45.7335 40.4817 45.4895 41.1464 45.4895C42.9422 45.4895 43.6544 47 43.6544 48.4685C43.6544 49.9763 42.8365 51.3175 41.2322 51.3175C40.516 51.3175 39.932 51.0144 39.5778 50.4934H39.5553V53.1167H38.0383V45.6391H39.48Z" fill="white"/>
<path fill-rule="evenodd" clip-rule="evenodd" d="M47.0953 50.1824C48.1155 50.1824 48.4418 49.3307 48.4418 48.4133C48.4418 47.5708 48.1643 46.6364 47.0953 46.6364C46.1505 46.6364 45.7607 47.4094 45.7607 48.4133C45.7607 49.3897 46.128 50.1824 47.0953 50.1824ZM47.8012 43.4317L48.976 44.9553H47.7272L47.0652 44.0852L46.3807 44.9553H45.239L46.4111 43.4317H47.8012ZM47.0954 45.4895C48.8569 45.4895 49.9576 46.6653 49.9576 48.4133C49.9576 50.0866 48.9296 51.3175 47.0954 51.3175C45.4727 51.3175 44.2451 50.2873 44.2451 48.4133C44.2451 46.6272 45.3894 45.4895 47.0954 45.4895Z" fill="white"/>
<path fill-rule="evenodd" clip-rule="evenodd" d="M53.691 45.6389V46.6572H52.5797V49.3987C52.5797 49.9105 52.7119 50.0418 53.2219 50.0418C53.3831 50.0418 53.5536 50.0286 53.691 49.9985V51.1782C53.4241 51.2215 53.0501 51.2321 52.8044 51.2321C51.7921 51.2321 51.064 50.9958 51.064 49.9263V46.6572H50.143V45.6389H51.064V43.9788H52.5797V45.6389H53.691Z" fill="white"/>
<path fill-rule="evenodd" clip-rule="evenodd" d="M4.56745 56.8631V56.8526C4.56745 55.7187 5.43166 54.7581 6.64738 54.7581C7.34774 54.7581 7.78249 54.9549 8.19742 55.3066L7.74681 55.846C7.43628 55.5783 7.1297 55.4129 6.61831 55.4129C5.87434 55.4129 5.31009 56.0665 5.31009 56.8394V56.8526C5.31009 57.6846 5.85849 58.2974 6.68174 58.2974C7.06231 58.2974 7.40588 58.1754 7.65563 57.989V57.2331H6.62492V56.615H8.33882V58.3132C7.94371 58.6557 7.37285 58.9444 6.65927 58.9444C5.39731 58.9444 4.56745 58.0415 4.56745 56.8631Z" fill="white"/>
<path fill-rule="evenodd" clip-rule="evenodd" d="M12.0281 56.8336C12.5355 56.8336 12.858 56.5672 12.858 56.1577V56.1472C12.858 55.7129 12.5474 55.4753 12.0228 55.4753H10.9921V56.8336H12.0281ZM10.2842 54.8296H12.0814C12.5875 54.8296 12.9853 54.9779 13.2443 55.2324C13.4583 55.4516 13.5786 55.7534 13.5786 56.1051V56.117C13.5786 56.781 13.1808 57.1826 12.6166 57.344L13.7068 58.8755H12.8703L11.8792 57.4634H10.9925V58.8755H10.2842V54.8296Z" fill="white"/>
<path fill-rule="evenodd" clip-rule="evenodd" d="M18.4758 56.8631V56.8526C18.4758 56.0665 17.9036 55.413 17.1055 55.413C16.3021 55.413 15.7457 56.0547 15.7457 56.8395V56.8526C15.7457 57.6387 16.3153 58.2909 17.1174 58.2909C17.9169 58.2909 18.4758 57.6505 18.4758 56.8631ZM15.0013 56.8631V56.8526C15.0013 55.7135 15.8774 54.7581 17.1169 54.7581C18.3551 54.7581 19.218 55.7016 19.218 56.8394V56.8526C19.218 57.989 18.3419 58.9444 17.105 58.9444C15.8642 58.9444 15.0013 58.0022 15.0013 56.8631Z" fill="white"/>
<path fill-rule="evenodd" clip-rule="evenodd" d="M20.7468 57.1579V54.8299H21.4551V57.1304C21.4551 57.8823 21.8409 58.2852 22.4752 58.2852C23.1029 58.2852 23.4887 57.9033 23.4887 57.1579V54.8299H24.197V57.1251C24.197 58.3325 23.5178 58.9388 22.4633 58.9388C21.4154 58.9388 20.7468 58.3325 20.7468 57.1579Z" fill="white"/>
<path fill-rule="evenodd" clip-rule="evenodd" d="M27.4529 56.9322C27.988 56.9322 28.3224 56.6317 28.3224 56.2091V56.1973C28.3224 55.7235 27.9801 55.4768 27.4529 55.4768H26.6283V56.9322H27.4529ZM25.9204 54.8272H27.5101C28.4496 54.8272 29.0429 55.3666 29.0429 56.1816V56.1934C29.0429 57.1002 28.3161 57.5739 27.4281 57.5739H26.6287V58.8745H25.9204V54.8272Z" fill="white"/>
<path fill-rule="evenodd" clip-rule="evenodd" d="M30.4268 54.8278H33.4172V55.463H31.1351V56.5155H33.1555V57.152H31.1351V58.2399H33.4449V58.8737H30.4268V54.8278Z" fill="white"/>
<path fill-rule="evenodd" clip-rule="evenodd" d="M46.9528 21.2058C47.1603 21.4722 47.377 21.7216 47.6056 21.946C47.8593 21.8357 48.2055 21.7898 48.668 21.8712C48.08 21.4381 47.5422 20.883 47.0757 20.2111C46.8207 19.8462 46.596 19.4565 46.3991 19.0457C46.0331 18.2399 45.6142 17.6284 45.1728 17.2163C44.4857 16.5746 43.6175 16.2924 42.6833 17.0063C43.0334 17.3397 43.8435 17.715 44.4606 17.0798C44.8834 17.3239 45.2905 17.8134 45.531 18.5339C45.6063 18.7596 45.6935 18.984 45.7847 19.2006C45.2046 18.8502 44.5716 18.9079 44.1857 19.4027C44.4474 19.5549 44.9984 19.6691 45.272 19.1979C45.3393 19.2097 45.4834 19.274 45.5164 19.2924C46.0172 19.5575 46.1573 20.03 46.4467 20.4748C46.2353 20.505 46.0331 20.5982 45.8587 20.7688C46.3027 20.6402 46.6343 20.7898 46.9528 21.2058Z" fill="white"/>
<path fill-rule="evenodd" clip-rule="evenodd" d="M45.5485 10.2892C45.6912 10.7695 45.5763 11.1737 45.5036 11.3561C45.3503 11.738 44.9711 12.1343 44.6143 12.3784C44.0408 11.8312 43.3193 12.2577 42.9334 12.6199C43.61 13.1172 44.5641 12.8784 45.2525 12.2314C45.1732 12.5661 45.1072 12.9086 45.0583 13.255C44.8601 13.1435 44.6288 13.1041 44.3711 13.1711C44.757 13.259 45.0067 13.5293 44.979 13.9466C44.975 13.9965 44.9592 14.2367 44.9565 14.2957C44.7623 14.0989 44.4517 13.8731 44.0593 13.759C43.6827 13.6277 43.1752 13.654 42.7352 13.8718C43.0325 14.4401 43.9245 14.5018 44.4557 14.1619C44.6817 14.3495 44.9433 14.6724 44.9433 15.1592C44.9433 15.7262 44.6883 16.1264 44.054 16.2524C44.4451 16.3495 44.761 16.2734 44.9988 16.0805C45.0252 16.3298 45.0596 16.5779 45.1006 16.822C45.3569 17.0214 45.612 17.2878 45.8525 17.6212C45.571 16.6605 45.4203 15.6317 45.4203 14.5752C45.4203 13.4099 45.6212 12.4939 45.7758 11.8075C45.8947 11.28 45.9198 10.8259 45.8551 10.4453C45.7071 9.52932 45.0834 9.14218 44.28 9.049C44.3315 9.57919 44.6817 10.4046 45.5485 10.2892Z" fill="white"/>
<path fill-rule="evenodd" clip-rule="evenodd" d="M46.037 10.0663C46.0991 10.2513 46.1335 10.4587 46.1427 10.6883C46.2445 10.4311 46.3555 10.1831 46.477 9.94292C47.443 8.12533 47.04 7.15683 45.9049 6.59384C45.6908 7.10302 45.634 8.10302 46.629 8.44292C46.5907 8.79725 46.4612 9.26182 46.1586 9.82743C46.1163 9.90617 46.0766 9.98491 46.037 10.0663Z" fill="white"/>
<path fill-rule="evenodd" clip-rule="evenodd" d="M45.8322 9.00511C45.8838 8.61929 45.634 8.11929 45.0764 8.09829C44.9495 8.58648 45.3645 9.0143 45.8322 9.00511Z" fill="white"/>
<path fill-rule="evenodd" clip-rule="evenodd" d="M51.7954 25.8783L50.7766 25.2904C50.7766 25.2904 50.8969 25.5502 50.8969 25.8783C50.8969 26.2077 50.7766 26.4688 50.7766 26.4688L51.7954 25.8783Z" fill="white"/>
<path fill-rule="evenodd" clip-rule="evenodd" d="M51.8779 25.9605L51.2845 26.9723C51.2845 26.9723 51.5462 26.8542 51.8779 26.8542C52.2095 26.8542 52.4725 26.9723 52.4725 26.9723L51.8779 25.9605Z" fill="white"/>
<path fill-rule="evenodd" clip-rule="evenodd" d="M51.9604 25.8783L52.9792 26.4688C52.9792 26.4688 52.859 26.2077 52.859 25.8783C52.859 25.5502 52.9792 25.2904 52.9792 25.2904L51.9604 25.8783Z" fill="white"/>
<path fill-rule="evenodd" clip-rule="evenodd" d="M51.2845 24.7865L51.8778 25.7983L52.4711 24.7865C52.4711 24.7865 52.2095 24.9059 51.8778 24.9059C51.5461 24.9059 51.2845 24.7865 51.2845 24.7865Z" fill="white"/>
<path fill-rule="evenodd" clip-rule="evenodd" d="M47.2079 21.9811C47.0203 21.8459 46.8419 21.7527 46.6595 21.7173C46.6238 21.2606 46.1164 21.0559 45.2813 21.1608C45.3711 21.4771 45.6592 21.7147 46.0318 21.8406C45.7477 22.0126 45.4478 22.359 45.1187 22.9377C45.9063 23.1425 46.7533 22.7265 47.2079 21.9811Z" fill="white"/>
<path fill-rule="evenodd" clip-rule="evenodd" d="M45.5857 20.064C44.9659 19.9314 44.3369 20.1532 44.0673 20.6388C44.7532 20.9091 45.5222 20.6322 45.5857 20.064Z" fill="white"/>
<path fill-rule="evenodd" clip-rule="evenodd" d="M44.6332 18.4516C44.7799 18.0264 44.431 17.7731 43.7306 17.7758C43.7505 17.907 43.8152 18.0238 43.913 18.1248C43.6646 18.1747 43.3672 18.365 42.988 18.7469C43.4981 19.0277 44.168 18.8899 44.6332 18.4516Z" fill="white"/>
<path fill-rule="evenodd" clip-rule="evenodd" d="M44.5288 10.7583C44.4627 10.631 44.3887 10.5326 44.2962 10.463C44.4125 10.1927 44.1865 9.94331 43.6831 9.7819C43.6408 9.98662 43.732 10.1979 43.9077 10.3672C43.695 10.3895 43.4228 10.5063 43.066 10.7491C43.4492 11.0732 44.0504 11.0601 44.5288 10.7583Z" fill="white"/>
<path fill-rule="evenodd" clip-rule="evenodd" d="M48.9048 24.6942C48.5599 24.3543 47.993 24.4567 47.7644 24.8202C48.0591 25.0499 48.6022 25.1076 48.9048 24.6942Z" fill="white"/>
<path fill-rule="evenodd" clip-rule="evenodd" d="M44.8368 11.4606C44.5276 11.1339 43.995 11.2113 43.7717 11.5407C44.0386 11.7638 44.5447 11.836 44.8368 11.4606Z" fill="white"/>
<path fill-rule="evenodd" clip-rule="evenodd" d="M43.4435 15.8514C43.7461 16.0049 44.2377 15.9616 44.4174 15.5495C44.0501 15.3094 43.573 15.4957 43.4435 15.8514Z" fill="white"/>
<path fill-rule="evenodd" clip-rule="evenodd" d="M44.2292 21.9594C44.5134 22.2048 45.0499 22.2862 45.367 21.8885C45.0406 21.5368 44.4737 21.6116 44.2292 21.9594Z" fill="white"/>
<path fill-rule="evenodd" clip-rule="evenodd" d="M47.4351 23.355C47.0136 23.1122 46.4956 23.3498 46.374 23.7513C46.7216 23.9023 47.2594 23.8248 47.4351 23.355Z" fill="white"/>
<path fill-rule="evenodd" clip-rule="evenodd" d="M44.2888 19.8832C44.0166 19.5919 43.5462 19.6628 43.3453 19.9528C43.5819 20.1536 44.0298 20.2153 44.2888 19.8832Z" fill="white"/>
<path fill-rule="evenodd" clip-rule="evenodd" d="M43.9315 15.0144C43.5324 14.5223 42.7818 14.5709 42.4343 15.0052C42.7845 15.3504 43.4835 15.5065 43.9315 15.0144Z" fill="white"/>
<path fill-rule="evenodd" clip-rule="evenodd" d="M52.7118 23.8137C52.77 23.7087 52.7369 23.5972 52.6457 23.521C52.5744 23.4607 52.4251 23.3163 52.0921 23.042C52.0366 22.9948 51.9599 22.9462 51.878 22.9462C51.7974 22.9462 51.7207 22.9948 51.6652 23.042C51.3322 23.3163 51.1829 23.4607 51.1102 23.521C51.0204 23.5972 50.9847 23.7087 51.0442 23.8137C51.1023 23.9174 51.2265 23.9502 51.3203 23.8872C51.2107 24.0565 51.2886 24.2048 51.3758 24.2586C51.4736 24.3189 51.5978 24.2809 51.6586 24.1759C51.6296 24.3688 51.7591 24.4817 51.878 24.4817C51.9969 24.4817 52.1291 24.3688 52.0987 24.1759C52.1581 24.2809 52.2823 24.3189 52.3815 24.2586C52.466 24.2048 52.5453 24.0565 52.4356 23.8872C52.5308 23.9502 52.6537 23.9174 52.7118 23.8137Z" fill="white"/>
<path fill-rule="evenodd" clip-rule="evenodd" d="M49.7538 22.504C49.175 22.2494 48.1694 21.9108 47.5285 22.2849C47.288 22.4253 47.0832 22.6707 47.0277 22.9476C47.4611 22.4738 48.55 22.315 48.8579 23.1877C48.9438 23.4318 48.9491 23.8098 48.6848 23.9528C48.7878 23.3295 48.3782 22.9476 47.8338 22.9332C47.7637 23.2206 47.8364 23.5355 48.0175 23.7442C47.8404 23.7258 47.6726 23.7626 47.5391 23.8177C47.5391 23.8177 47.7611 24.172 48.1906 24.2048C48.5051 24.2297 48.7892 24.1156 48.9861 23.8977C49.0323 24.2888 49.1076 24.6379 49.5358 24.7652C49.1076 24.966 48.7482 25.3045 48.6544 25.7494C50.4383 25.6589 50.2678 24.9922 50.1027 24.5801C49.0521 24.8505 49.2543 23.8439 49.2596 23.1615C49.3508 23.2087 49.6521 23.3465 49.9467 23.4581C49.8793 23.6287 49.7763 23.7717 49.6349 23.8977C50.1635 23.8544 50.3815 23.7009 51.2933 22.9187C50.7607 22.8597 50.2454 22.7179 49.7538 22.504Z" fill="white"/>
<path fill-rule="evenodd" clip-rule="evenodd" d="M58.5833 17.2162C58.1432 17.6282 57.7244 18.2398 57.357 19.0482C57.1588 19.4563 56.9341 19.8461 56.6817 20.2109C56.214 20.8828 55.6775 21.4379 55.0881 21.871C55.5519 21.7896 55.8981 21.8369 56.1505 21.9458C56.3791 21.7214 56.5972 21.4721 56.802 21.2057C57.1244 20.7896 57.4548 20.64 57.8975 20.77C57.7244 20.598 57.5209 20.5049 57.3094 20.4747C57.5988 20.0298 57.7402 19.5574 58.2397 19.2923C58.2741 19.2739 58.4168 19.2122 58.4868 19.1965C58.7604 19.6689 59.3088 19.5547 59.5717 19.4038C59.1859 18.9078 58.5529 18.85 57.9715 19.2004C58.0613 18.9839 58.1485 18.7595 58.2252 18.5337C58.467 17.8133 58.8753 17.3251 59.2955 17.0797C59.9113 17.7148 60.724 17.3395 61.0755 17.0062C60.1413 16.2923 59.2718 16.5744 58.5833 17.2162Z" fill="white"/>
<path fill-rule="evenodd" clip-rule="evenodd" d="M57.8995 10.4456C57.8361 10.8262 57.8625 11.2803 57.9814 11.8078C58.1374 12.4942 58.3356 13.4102 58.3356 14.5742C58.3356 15.632 58.1863 16.6608 57.9035 17.6215C58.1453 17.2881 58.3977 17.0217 58.6567 16.8196C58.6977 16.5769 58.7333 16.3288 58.7558 16.0795C58.995 16.2724 59.3108 16.3498 59.7033 16.2527C59.069 16.1267 58.8126 15.7251 58.8126 15.1595C58.8126 14.6727 59.0769 14.3498 59.3029 14.1622C59.8301 14.502 60.7247 14.4391 61.0207 13.8721C60.582 13.6543 60.0746 13.628 59.6953 13.758C59.3029 13.8734 58.9937 14.1005 58.8007 14.296C58.7981 14.237 58.7796 13.9968 58.7769 13.9456C58.7505 13.5296 58.9976 13.2593 59.3835 13.1713C59.1284 13.1031 58.8959 13.1438 58.6977 13.2553C58.6474 12.9076 58.584 12.5677 58.5034 12.2317C59.1932 12.8787 60.1473 13.1175 60.8238 12.6215C60.4393 12.258 59.7138 11.8314 59.1403 12.3787C58.7835 12.1346 58.4069 11.737 58.255 11.3564C58.181 11.174 58.0634 10.7698 58.2061 10.2895C59.0756 10.4049 59.4258 9.57948 59.476 9.0493C58.6725 9.14247 58.0501 9.52961 57.8995 10.4456Z" fill="white"/>
<path fill-rule="evenodd" clip-rule="evenodd" d="M57.2799 9.94204C57.4014 10.1848 57.5124 10.4315 57.6129 10.6874C57.6221 10.4591 57.6578 10.2504 57.7199 10.0654C57.6803 9.98666 57.638 9.90792 57.597 9.82787C57.2944 9.26094 57.1649 8.79637 57.1279 8.44204C58.1216 8.10346 58.0648 7.10215 57.8521 6.59428C56.7156 7.15596 56.3113 8.12446 57.2799 9.94204Z" fill="white"/>
<path fill-rule="evenodd" clip-rule="evenodd" d="M57.9253 9.00511C58.3931 9.0143 58.8067 8.58648 58.6798 8.09829C58.1235 8.11929 57.8724 8.61929 57.9253 9.00511Z" fill="white"/>
<path fill-rule="evenodd" clip-rule="evenodd" d="M58.475 21.1622C57.6399 21.0572 57.1325 21.2619 57.0981 21.7173C56.9144 21.754 56.7347 21.8459 56.5484 21.9824C57.0043 22.7252 57.85 23.1412 58.6376 22.9378C58.3085 22.359 58.0086 22.0112 57.7245 21.8393C58.0971 21.7147 58.3852 21.4784 58.475 21.1622Z" fill="white"/>
<path fill-rule="evenodd" clip-rule="evenodd" d="M58.1719 20.064C58.234 20.6322 59.0031 20.9091 59.6876 20.6388C59.4207 20.1532 58.7904 19.9314 58.1719 20.064Z" fill="white"/>
<path fill-rule="evenodd" clip-rule="evenodd" d="M59.8437 18.1248C59.9402 18.0238 60.005 17.907 60.0248 17.7758C59.3244 17.7731 58.9769 18.0264 59.1222 18.4516C59.5861 18.8899 60.256 19.0277 60.7674 18.7469C60.3895 18.365 60.0909 18.1747 59.8437 18.1248Z" fill="white"/>
<path fill-rule="evenodd" clip-rule="evenodd" d="M60.0723 9.78163C59.5688 9.94305 59.3442 10.1937 59.4604 10.4654C59.3679 10.5323 59.2926 10.632 59.2279 10.758C59.7062 11.0625 60.3075 11.073 60.6907 10.7475C60.3326 10.5074 60.0617 10.3892 59.8489 10.3669C60.0234 10.1963 60.1146 9.98636 60.0723 9.78163Z" fill="white"/>
<path fill-rule="evenodd" clip-rule="evenodd" d="M55.9936 24.8198C55.7637 24.4589 55.1954 24.3552 54.8519 24.6938C55.1518 25.1085 55.6949 25.0521 55.9936 24.8198Z" fill="white"/>
<path fill-rule="evenodd" clip-rule="evenodd" d="M58.9201 11.4606C59.2108 11.836 59.7169 11.7638 59.9852 11.5407C59.7605 11.2113 59.228 11.1339 58.9201 11.4606Z" fill="white"/>
<path fill-rule="evenodd" clip-rule="evenodd" d="M60.3134 15.8514C60.1826 15.4957 59.7056 15.3094 59.3382 15.5495C59.5193 15.9616 60.0095 16.0049 60.3134 15.8514Z" fill="white"/>
<path fill-rule="evenodd" clip-rule="evenodd" d="M59.5264 21.9594C59.2806 21.6116 58.715 21.5368 58.39 21.8885C58.7058 22.2862 59.2436 22.2048 59.5264 21.9594Z" fill="white"/>
<path fill-rule="evenodd" clip-rule="evenodd" d="M56.3212 23.355C56.497 23.8248 57.0361 23.9023 57.3837 23.7513C57.2608 23.3498 56.7441 23.1122 56.3212 23.355Z" fill="white"/>
<path fill-rule="evenodd" clip-rule="evenodd" d="M60.4121 19.9524C60.2125 19.6611 59.7408 19.5941 59.4672 19.8829C59.7249 20.2149 60.1729 20.1519 60.4121 19.9524Z" fill="white"/>
<path fill-rule="evenodd" clip-rule="evenodd" d="M59.8261 15.0144C60.274 15.5065 60.9704 15.3504 61.3232 15.0052C60.9744 14.5709 60.2238 14.5223 59.8261 15.0144Z" fill="white"/>
<path fill-rule="evenodd" clip-rule="evenodd" d="M56.7277 22.9474C56.6749 22.6705 56.4701 22.4277 56.2282 22.2847C55.5874 21.9107 54.5817 22.248 54.0016 22.5039C53.5101 22.7178 52.996 22.8608 52.4608 22.9199C53.3753 23.7007 53.5946 23.8543 54.1206 23.8989C53.9805 23.7716 53.8774 23.6298 53.81 23.4579C54.1047 23.3464 54.4047 23.2086 54.4972 23.1627C54.4998 23.8451 54.706 24.8503 53.6541 24.58C53.4889 24.992 53.3185 25.6587 55.1037 25.7493C55.0072 25.3044 54.6505 24.9671 54.221 24.765C54.6505 24.639 54.7218 24.2886 54.7707 23.8976C54.9676 24.1154 55.2517 24.2309 55.5662 24.2046C55.9944 24.1732 56.2164 23.8175 56.2164 23.8175C56.0842 23.7637 55.9164 23.7243 55.7393 23.744C55.9204 23.5354 55.9917 23.2204 55.923 22.933C55.3786 22.9474 54.9702 23.3293 55.0707 23.9553C54.8077 23.8096 54.813 23.4317 54.8989 23.1889C55.2068 22.3175 56.297 22.4737 56.7277 22.9474Z" fill="white"/>
<path fill-rule="evenodd" clip-rule="evenodd" d="M51.8778 21.8068C48.9944 21.8068 46.6475 18.5627 46.6475 14.5785C46.6475 10.5876 48.9944 7.34224 51.8778 7.34224C54.7611 7.34224 57.108 10.5876 57.108 14.5785C57.108 18.5627 54.7611 21.8068 51.8778 21.8068ZM57.6604 14.5785C57.6604 10.2937 55.0717 6.81209 51.8778 6.81209C48.6852 6.81209 46.0952 10.2937 46.0952 14.5785C46.0952 18.8606 48.6852 22.3331 51.8778 22.3331C55.0717 22.3331 57.6604 18.8606 57.6604 14.5785Z" fill="white"/>
<path fill-rule="evenodd" clip-rule="evenodd" d="M51.8781 7.83882C51.3904 7.83882 50.9134 7.94906 50.4575 8.15772H53.2986C52.8414 7.94906 52.3657 7.83882 51.8781 7.83882Z" fill="white"/>
<path fill-rule="evenodd" clip-rule="evenodd" d="M54.0549 8.61305H49.7021C49.5713 8.71148 49.4471 8.81647 49.3229 8.93195H54.4329C54.3086 8.81647 54.1844 8.71148 54.0549 8.61305Z" fill="white"/>
<path fill-rule="evenodd" clip-rule="evenodd" d="M54.8616 9.38576H48.8927C48.8081 9.48812 48.7222 9.59442 48.6429 9.70597H55.1126C55.032 9.59442 54.9461 9.48812 54.8616 9.38576Z" fill="white"/>
<path fill-rule="evenodd" clip-rule="evenodd" d="M47.1741 14.8004C47.1768 14.908 47.1807 15.0143 47.186 15.1206H56.5695C56.5761 15.0143 56.5801 14.908 56.5827 14.8004H47.1741Z" fill="white"/>
<path fill-rule="evenodd" clip-rule="evenodd" d="M49.6982 20.5355H54.0576C54.1858 20.437 54.3126 20.3307 54.4368 20.2152H49.3202C49.4431 20.3307 49.5674 20.437 49.6982 20.5355Z" fill="white"/>
<path fill-rule="evenodd" clip-rule="evenodd" d="M51.8781 21.3083C52.367 21.3083 52.8454 21.1981 53.3012 20.9894H50.4575C50.9134 21.1981 51.3905 21.3083 51.8781 21.3083Z" fill="white"/>
<path fill-rule="evenodd" clip-rule="evenodd" d="M49.2031 10.1598H48.3388C48.2741 10.2648 48.212 10.3711 48.1525 10.4801H48.9705C49.0392 10.3672 49.1172 10.2596 49.2031 10.1598Z" fill="white"/>
<path fill-rule="evenodd" clip-rule="evenodd" d="M54.7857 10.4789H55.6036C55.5455 10.37 55.4821 10.2637 55.4186 10.1587H54.5531C54.6416 10.2584 54.7183 10.366 54.7857 10.4789Z" fill="white"/>
<path fill-rule="evenodd" clip-rule="evenodd" d="M48.7564 10.9326H47.9266C47.879 11.0376 47.8341 11.1439 47.7905 11.2528H48.6679C48.6877 11.1492 48.7181 11.0415 48.7564 10.9326Z" fill="white"/>
<path fill-rule="evenodd" clip-rule="evenodd" d="M55.0886 11.253H55.9661C55.9238 11.144 55.8775 11.0378 55.83 10.9328H55.0014C55.0397 11.043 55.0662 11.1493 55.0886 11.253Z" fill="white"/>
<path fill-rule="evenodd" clip-rule="evenodd" d="M48.6616 11.8629C48.6497 11.8091 48.6404 11.758 48.6338 11.7068H47.6216C47.5872 11.8118 47.5542 11.9181 47.5225 12.0257H48.1251C48.2823 11.9286 48.466 11.8695 48.6616 11.8629Z" fill="white"/>
<path fill-rule="evenodd" clip-rule="evenodd" d="M55.0948 11.8629C55.2877 11.8695 55.4727 11.9286 55.6313 12.0257H56.2326C56.2022 11.9181 56.1678 11.8118 56.1334 11.7068H55.1199C55.1146 11.758 55.1067 11.8091 55.0948 11.8629Z" fill="white"/>
<path fill-rule="evenodd" clip-rule="evenodd" d="M47.7085 12.4807H47.4059C47.3808 12.587 47.3584 12.6933 47.3385 12.7996H47.6028C47.624 12.6868 47.6583 12.5791 47.7085 12.4807Z" fill="white"/>
<path fill-rule="evenodd" clip-rule="evenodd" d="M56.1533 12.7999H56.4176C56.3978 12.6923 56.3753 12.586 56.3489 12.481H56.0476C56.0978 12.5794 56.1335 12.687 56.1533 12.7999Z" fill="white"/>
<path fill-rule="evenodd" clip-rule="evenodd" d="M47.6945 13.4855C47.6602 13.4081 47.6324 13.3306 47.6126 13.2532H47.2624C47.2465 13.3595 47.2333 13.4658 47.2228 13.5721H47.75C47.7276 13.5472 47.709 13.517 47.6945 13.4855Z" fill="white"/>
<path fill-rule="evenodd" clip-rule="evenodd" d="M56.0616 13.4855C56.047 13.517 56.0285 13.5472 56.0061 13.5721H56.532C56.5227 13.4658 56.5095 13.3595 56.495 13.2532H56.1422C56.1237 13.3306 56.0972 13.4081 56.0616 13.4855Z" fill="white"/>
<path fill-rule="evenodd" clip-rule="evenodd" d="M53.6252 10.1598H50.1287C50.2172 10.2596 50.2938 10.3672 50.3625 10.4801H53.3926C53.4613 10.3672 53.5393 10.2596 53.6252 10.1598Z" fill="white"/>
<path fill-rule="evenodd" clip-rule="evenodd" d="M53.1786 10.9326H50.5767C50.6177 11.0415 50.6455 11.1492 50.6666 11.2528H53.0901C53.1113 11.1492 53.1403 11.0415 53.1786 10.9326Z" fill="white"/>
<path fill-rule="evenodd" clip-rule="evenodd" d="M53.0849 11.8629C53.073 11.8091 53.0638 11.758 53.0572 11.7068H50.6958C50.6905 11.758 50.6839 11.8091 50.672 11.8629C50.8662 11.8695 51.0512 11.9286 51.2085 12.0257H52.5484C52.7057 11.9286 52.8893 11.8695 53.0849 11.8629Z" fill="white"/>
<path fill-rule="evenodd" clip-rule="evenodd" d="M52.0252 12.7999C52.0463 12.687 52.082 12.5794 52.1322 12.481H51.6248C51.6737 12.5794 51.712 12.687 51.7305 12.7999H52.0252Z" fill="white"/>
<path fill-rule="evenodd" clip-rule="evenodd" d="M52.1735 13.5727C52.122 13.5136 52.0704 13.3955 52.0361 13.2538H51.7189C51.6859 13.3955 51.6343 13.5136 51.5841 13.5727H52.1735Z" fill="white"/>
<path fill-rule="evenodd" clip-rule="evenodd" d="M51.4158 15.5745H47.2215C47.2321 15.6821 47.2466 15.7884 47.2585 15.8947H51.1832C51.2519 15.7819 51.3299 15.6743 51.4158 15.5745Z" fill="white"/>
<path fill-rule="evenodd" clip-rule="evenodd" d="M52.5735 15.8936H56.4955C56.51 15.7873 56.5232 15.681 56.5351 15.5733H52.3396C52.4281 15.6731 52.5047 15.7807 52.5735 15.8936Z" fill="white"/>
<path fill-rule="evenodd" clip-rule="evenodd" d="M50.9681 16.3485H47.3368C47.358 16.4561 47.3791 16.5624 47.4042 16.6674H50.8796C50.8994 16.5637 50.9298 16.4575 50.9681 16.3485Z" fill="white"/>
<path fill-rule="evenodd" clip-rule="evenodd" d="M52.8766 16.6677H56.352C56.3745 16.5614 56.3983 16.4551 56.4194 16.3488H52.7881C52.8277 16.4577 52.8542 16.564 52.8766 16.6677Z" fill="white"/>
<path fill-rule="evenodd" clip-rule="evenodd" d="M50.8729 17.2802C50.861 17.2264 50.8531 17.1726 50.8451 17.1214H47.5217C47.5521 17.2291 47.5865 17.3354 47.6208 17.4403H50.3403C50.4976 17.3445 50.68 17.2855 50.8729 17.2802Z" fill="white"/>
<path fill-rule="evenodd" clip-rule="evenodd" d="M52.883 17.2802C53.076 17.2855 53.2583 17.3445 53.4156 17.4403H56.1351C56.1694 17.3354 56.2038 17.2291 56.2342 17.1214H52.9095C52.9042 17.1726 52.8949 17.2264 52.883 17.2802Z" fill="white"/>
<path fill-rule="evenodd" clip-rule="evenodd" d="M49.9215 17.8954H47.7887C47.831 18.0043 47.8773 18.1106 47.9248 18.2143H49.8145C49.8356 18.1014 49.8713 17.9938 49.9215 17.8954Z" fill="white"/>
<path fill-rule="evenodd" clip-rule="evenodd" d="M53.9411 18.2146H55.8308C55.8783 18.1096 55.9246 18.0033 55.9682 17.8957H53.8354C53.8856 17.9941 53.9213 18.1017 53.9411 18.2146Z" fill="white"/>
<path fill-rule="evenodd" clip-rule="evenodd" d="M50.5462 18.9885H51.1791C51.1461 18.8639 51.0391 18.7274 50.8845 18.7274C50.7272 18.7274 50.6175 18.852 50.5462 18.9885Z" fill="white"/>
<path fill-rule="evenodd" clip-rule="evenodd" d="M52.5773 18.9885H53.2103C53.1389 18.852 53.0292 18.7274 52.8733 18.7274C52.7147 18.7274 52.6077 18.8639 52.5773 18.9885Z" fill="white"/>
<path fill-rule="evenodd" clip-rule="evenodd" d="M48.3345 13.5714H48.9675C48.9358 13.4467 48.8274 13.3102 48.6728 13.3102C48.5169 13.3102 48.4072 13.4349 48.3345 13.5714Z" fill="white"/>
<path fill-rule="evenodd" clip-rule="evenodd" d="M50.6609 13.3099C50.5063 13.3099 50.3993 13.4464 50.3662 13.5711H50.9992C50.9265 13.4359 50.8182 13.3099 50.6609 13.3099Z" fill="white"/>
<path fill-rule="evenodd" clip-rule="evenodd" d="M55.0836 13.3099C54.929 13.3099 54.822 13.4464 54.7889 13.5711H55.4219C55.3492 13.4359 55.2409 13.3099 55.0836 13.3099Z" fill="white"/>
<path fill-rule="evenodd" clip-rule="evenodd" d="M53.0949 13.3099C52.9389 13.3099 52.8293 13.4359 52.7566 13.5711H53.3909C53.3578 13.4464 53.2495 13.3099 53.0949 13.3099Z" fill="white"/>
<path fill-rule="evenodd" clip-rule="evenodd" d="M49.8247 18.6682H48.1505C48.2086 18.7772 48.2721 18.8835 48.3355 18.9884H49.9609C49.8987 18.9228 49.8446 18.7496 49.8247 18.6682Z" fill="white"/>
<path fill-rule="evenodd" clip-rule="evenodd" d="M53.7968 18.9886H55.4208C55.4829 18.8836 55.545 18.7773 55.6058 18.6684H53.9316C53.9131 18.7484 53.8576 18.9243 53.7968 18.9886Z" fill="white"/>
<path fill-rule="evenodd" clip-rule="evenodd" d="M49.6677 10.5724C50.1223 11.2784 50.0734 11.7968 49.6677 12.5317V10.5724ZM50.6613 12.9293C50.9362 12.9293 51.1674 13.0947 51.2916 13.3283C51.3365 13.2285 51.3669 13.1196 51.3669 13.0041C51.3669 12.5842 51.0405 12.2416 50.6349 12.2416C50.5054 12.2416 50.3825 12.281 50.2768 12.3466L50.0204 12.7167L49.9239 12.6458C49.9239 12.6458 50.3217 11.991 50.3217 11.5855C50.3217 11.176 50.0627 10.5553 49.6676 10.2364C49.2711 10.5553 49.0121 11.176 49.0121 11.5855C49.0121 11.991 49.4086 12.6458 49.4086 12.6458L49.3121 12.7167L49.0571 12.3466C48.9514 12.281 48.8271 12.2416 48.6976 12.2416C48.2933 12.2416 47.9669 12.5842 47.9669 13.0041C47.9669 13.1196 47.996 13.2285 48.0435 13.3283C48.1651 13.0947 48.3977 12.9293 48.6725 12.9293C49.0888 12.9293 49.3623 13.3125 49.3623 13.6458C49.3623 13.7863 49.3399 13.9122 49.3068 14.0251V14.0277C49.2659 14.1537 49.2143 14.2613 49.1641 14.3466H50.1697C50.1182 14.2613 50.0667 14.1537 50.0257 14.0277V14.0251C49.994 13.9122 49.9702 13.7863 49.9702 13.6458V13.6445C49.9702 13.3125 50.245 12.9293 50.6613 12.9293Z" fill="white"/>
<path fill-rule="evenodd" clip-rule="evenodd" d="M54.0896 10.5724C54.5442 11.2784 54.4966 11.7968 54.0896 12.5317V10.5724ZM55.084 12.9293C55.3589 12.9293 55.5901 13.0947 55.7143 13.3283C55.7606 13.2285 55.7896 13.1196 55.7896 13.0041C55.7896 12.5842 55.4632 12.2416 55.0589 12.2416C54.9281 12.2416 54.8052 12.281 54.6995 12.3466L54.4431 12.7167L54.348 12.6458C54.348 12.6458 54.7457 11.991 54.7457 11.5855C54.7457 11.176 54.4867 10.5553 54.0903 10.2364C53.6938 10.5553 53.4348 11.176 53.4348 11.5855C53.4348 11.991 53.8313 12.6458 53.8313 12.6458L53.7348 12.7167L53.4811 12.3466C53.3754 12.281 53.2512 12.2416 53.1203 12.2416C52.7173 12.2416 52.3909 12.5842 52.3909 13.0041C52.3909 13.1196 52.42 13.2285 52.4662 13.3283C52.5904 13.0947 52.8204 12.9293 53.0952 12.9293C53.5115 12.9293 53.785 13.3125 53.7863 13.6445V13.6458C53.7863 13.7863 53.7626 13.9122 53.7308 14.0251L53.7295 14.0277C53.6912 14.1537 53.6383 14.2613 53.5868 14.3466H54.5924C54.5409 14.2613 54.4893 14.1537 54.4497 14.0277L54.4484 14.0251C54.4167 13.9122 54.3929 13.7863 54.3929 13.6458C54.3929 13.3125 54.6677 12.9293 55.084 12.9293Z" fill="white"/>
<path fill-rule="evenodd" clip-rule="evenodd" d="M51.8779 17.9493V15.99C52.3325 16.6961 52.2849 17.2131 51.8779 17.9493ZM51.8782 15.6525C51.4818 15.974 51.2228 16.5935 51.2228 17.0029C51.2228 17.4071 51.6205 18.0633 51.6205 18.0633L51.5241 18.1341L51.269 17.7614C51.1633 17.6985 51.0404 17.6591 50.9083 17.6591C50.5052 17.6591 50.1788 18.0016 50.1788 18.4202C50.1788 18.5383 50.2079 18.6473 50.2542 18.7444C50.3784 18.5121 50.6096 18.3467 50.8845 18.3467C51.2994 18.3467 51.5743 18.7299 51.5743 19.0633C51.5743 19.3625 51.4738 19.6 51.3774 19.7614H52.379C52.2826 19.6 52.1808 19.3625 52.1808 19.0633C52.1808 19.062 52.1821 19.062 52.1821 19.0607C52.1821 18.7286 52.457 18.3467 52.8732 18.3467C53.1481 18.3467 53.378 18.5121 53.5022 18.7444C53.5485 18.6473 53.5776 18.5383 53.5776 18.4202C53.5776 18.0016 53.2512 17.6591 52.8481 17.6591C52.7173 17.6591 52.5931 17.6985 52.4874 17.7614L52.2323 18.1341L52.1372 18.0633C52.1372 18.0633 52.5336 17.4071 52.5336 17.0029C52.5336 16.5935 52.2746 15.974 51.8782 15.6525Z" fill="white"/>
<path fill-rule="evenodd" clip-rule="evenodd" d="M51.1086 19.4423H48.6401C48.7221 19.5539 48.8066 19.6602 48.8925 19.7625H50.9579C51.0108 19.6772 51.0663 19.5709 51.1086 19.4423Z" fill="white"/>
<path fill-rule="evenodd" clip-rule="evenodd" d="M52.7995 19.7615H54.8636C54.9494 19.6591 55.0327 19.5542 55.1159 19.4413H52.6488C52.6898 19.5699 52.7453 19.6788 52.7995 19.7615Z" fill="white"/>
<path fill-rule="evenodd" clip-rule="evenodd" d="M52.3812 1.51292C52.3812 1.23733 52.1553 1.01292 51.8778 1.01292C51.6003 1.01292 51.3743 1.23733 51.3743 1.51292C51.3743 1.78851 51.6003 2.01292 51.8778 2.01292C52.1553 2.01292 52.3812 1.78851 52.3812 1.51292Z" fill="white"/>
<path fill-rule="evenodd" clip-rule="evenodd" d="M52.3376 5.90628L52.4737 6.09L52.6957 5.72124L52.479 5.3656H51.2765L51.0611 5.72124L51.2844 6.09L51.4192 5.90628H52.3376Z" fill="white"/>
<path fill-rule="evenodd" clip-rule="evenodd" d="M50.3682 6.09858L50.5624 6.22062L50.6258 5.79805L50.2862 5.54739L49.1723 5.9739L49.1128 6.38073L49.4603 6.64319L49.5172 6.42403L50.3682 6.09858Z" fill="white"/>
<path fill-rule="evenodd" clip-rule="evenodd" d="M54.2369 6.42403L54.295 6.64319L54.6452 6.38073L54.5844 5.97522L53.4678 5.54739L53.1309 5.79805L53.193 6.22062L53.3872 6.09858L54.2369 6.42403Z" fill="white"/>
<path fill-rule="evenodd" clip-rule="evenodd" d="M48.8954 14.0275H47.1868C47.1802 14.1338 47.1762 14.2401 47.1736 14.3477H48.7447C48.7989 14.2624 48.8544 14.1561 48.8954 14.0275Z" fill="white"/>
<path fill-rule="evenodd" clip-rule="evenodd" d="M55.0114 14.3467H56.5813C56.5799 14.2391 56.576 14.1328 56.5707 14.0265H54.8608C54.903 14.1551 54.9585 14.264 55.0114 14.3467Z" fill="white"/>
<path fill-rule="evenodd" clip-rule="evenodd" d="M53.1674 14.3467C53.2216 14.264 53.2771 14.1551 53.3194 14.0265H50.4386C50.4809 14.1551 50.5351 14.264 50.5893 14.3467H53.1674Z" fill="white"/>
<path fill-rule="evenodd" clip-rule="evenodd" d="M55.4175 3.75716L54.03 3.18235L53.7498 3.74272C53.6388 3.94613 53.4353 3.97632 53.282 3.91726C53.1327 3.85952 52.9992 3.70073 53.0547 3.48813L53.208 2.84115L51.8774 2.28865L50.5453 2.84115L50.7013 3.48813C50.7568 3.70073 50.622 3.85952 50.474 3.91726C50.322 3.97632 50.1172 3.94613 50.0049 3.74272L49.7234 3.18235L48.3399 3.75716L48.4892 4.32277C48.5434 4.53406 48.4086 4.69285 48.2606 4.75059C48.1086 4.81096 47.9025 4.77947 47.7915 4.57737L47.5166 4.09705L46.6524 4.45269C46.4859 4.12855 46.2137 4.21647 46.104 4.26897L47.3884 6.7191C47.7347 7.46975 47.5853 8.01306 47.5668 8.18366C47.9699 7.5603 48.8922 6.96844 49.0468 6.87264L48.3293 6.34639C48.324 6.43957 48.3425 6.57868 48.3663 6.69023L48.0796 6.91595L47.6818 6.23353C48.8671 5.41989 50.2586 4.93301 51.6646 4.90807C51.6025 4.74141 51.514 4.55637 51.1677 4.58918C49.9018 4.70335 48.6636 5.14692 47.5087 5.92907L46.8797 4.84377C46.8797 4.84377 47.3818 4.64954 47.3832 4.64954C47.662 5.09968 48.0042 5.15086 48.3914 4.99469C48.7707 4.84508 48.9107 4.54587 48.8235 4.08393L49.5966 3.78078C49.9243 4.30571 50.2493 4.33065 50.6193 4.18367C50.9973 4.03275 51.1202 3.67579 51.0356 3.2191C51.0356 3.2191 51.2536 3.13117 51.4849 3.038C51.6104 3.88052 51.8774 4.35296 51.8774 4.35296C51.8774 4.35296 52.143 3.88052 52.2685 3.038C52.5024 3.13117 52.7217 3.2191 52.7217 3.2191C52.6372 3.67579 52.7587 4.03275 53.134 4.18367C53.5067 4.33065 53.8317 4.30571 54.1595 3.78078L54.9325 4.08393C54.8426 4.54587 54.9867 4.84508 55.3659 4.99469C55.7531 5.15086 56.094 5.09968 56.3742 4.64954L56.8763 4.84377L56.2473 5.92907C55.0924 5.14692 53.8529 4.70335 52.5856 4.58918C52.2421 4.55637 52.1522 4.74141 52.0888 4.90807C53.4988 4.93301 54.8889 5.41989 56.0716 6.23353L55.6765 6.91595L55.3897 6.69023C55.4148 6.57868 55.4333 6.43957 55.4267 6.34639L54.7105 6.87264C54.8651 6.96844 55.7848 7.5603 56.1905 8.18366C56.1694 8.01306 56.0227 7.46975 56.3689 6.7191L57.6494 4.26897C57.541 4.21647 57.2675 4.12855 57.101 4.45269L56.2368 4.09705L55.9632 4.57737C55.8522 4.77947 55.6487 4.81096 55.4954 4.75059C55.3461 4.69285 55.2126 4.53406 55.2681 4.32277L55.4175 3.75716Z" fill="white"/>
<path fill-rule="evenodd" clip-rule="evenodd" d="M35.2307 13.9943C35.2294 14.1636 35.3668 14.3027 35.5347 14.304C35.7051 14.3053 35.8465 14.1689 35.8478 13.9996C35.8505 13.8303 35.7117 13.6938 35.5399 13.6925C35.3695 13.6912 35.232 13.825 35.2307 13.9943Z" fill="white"/>
<path fill-rule="evenodd" clip-rule="evenodd" d="M34.7868 15.8436L34.7722 15.845L34.8964 16.7124L34.8978 16.7255L35.0325 16.7072L35.0339 16.6967C35.0444 16.6192 35.0497 16.5103 35.0497 16.3896L35.8254 16.2807L35.8915 16.7373C35.9073 16.8502 35.9668 16.8804 36.0078 16.8961L36.1188 16.8804L36.0276 16.2531L36.6936 16.1573L36.7795 16.7597C36.6711 16.8003 36.5918 16.8384 36.4993 16.8975L36.4927 16.9027L36.5086 17.0103L36.5178 17.0129C36.5945 17.03 36.7531 17.0497 36.8601 17.0352C36.9222 17.0261 36.9671 17.0156 37.0002 16.9959L37.0081 16.9919L36.8046 15.5694L36.7927 15.5707C36.6658 15.5891 36.6487 15.6468 36.6407 15.862L35.0101 16.0891C34.9414 15.8778 34.9057 15.8266 34.7868 15.8436Z" fill="white"/>
<path fill-rule="evenodd" clip-rule="evenodd" d="M35.5551 18.0414C35.6701 17.8839 35.8603 17.7671 36.1101 17.7002C36.3599 17.6332 36.5885 17.6385 36.7669 17.7133C36.7906 17.7225 36.8131 17.7356 36.8342 17.7461C36.973 17.8249 37.0695 17.9535 37.1131 18.1175C37.1646 18.3039 37.1316 18.485 37.0206 18.6372C36.9069 18.7947 36.718 18.9128 36.4695 18.9784C36.2211 19.0466 35.9938 19.0414 35.8115 18.9653C35.6344 18.8905 35.5128 18.7514 35.4626 18.5624C35.4111 18.3747 35.4428 18.1936 35.5551 18.0414ZM35.7252 19.2055C35.7291 19.2081 35.7344 19.2107 35.7384 19.2133C35.9802 19.3446 36.2789 19.3761 36.5735 19.2947C36.8827 19.2147 37.1127 19.0519 37.2382 18.8236C37.3611 18.6097 37.3862 18.3511 37.3135 18.0821C37.2395 17.817 37.0757 17.6018 36.8497 17.4719C36.8471 17.4692 36.8418 17.4679 36.8352 17.4653C36.596 17.3328 36.3 17.3052 36.0053 17.3853C35.6948 17.4679 35.4662 17.6294 35.334 17.8525C35.2098 18.0664 35.1834 18.3196 35.2534 18.5887C35.3274 18.8551 35.4939 19.0729 35.7252 19.2055Z" fill="white"/>
<path fill-rule="evenodd" clip-rule="evenodd" d="M37.7974 20.0345L37.8027 20.0423L37.9282 19.9938L37.6151 19.1867L37.6032 19.1906C37.4895 19.2366 37.4842 19.3009 37.5278 19.5213L35.9923 20.1079C35.8761 19.915 35.8272 19.8704 35.7135 19.9137L35.7003 19.919L36.0108 20.7234L36.1377 20.6775V20.6657C36.1337 20.5896 36.1166 20.4754 36.0981 20.3901L37.6402 19.8035C37.6838 19.877 37.7472 19.9741 37.7974 20.0345Z" fill="white"/>
<path fill-rule="evenodd" clip-rule="evenodd" d="M38.5796 21.7095C38.6218 21.7672 38.6826 21.8709 38.7143 21.9234C38.7857 22.0441 38.8135 22.1544 38.7936 22.2502C38.7738 22.3447 38.7104 22.4273 38.602 22.4903C38.5188 22.5389 38.3906 22.5861 38.2598 22.5402C38.1131 22.4916 37.9928 22.3447 37.8911 22.1084L38.5796 21.7095ZM38.3101 22.8093C38.474 22.8618 38.6431 22.8447 38.7858 22.762C38.9378 22.6715 39.0276 22.5507 39.0475 22.3998C39.0686 22.2555 39.025 22.0875 38.9153 21.9011C38.8915 21.8631 38.8413 21.7817 38.7885 21.6964C38.7277 21.5993 38.6643 21.4983 38.6352 21.4458L38.4449 21.1282L38.4356 21.1347C38.3273 21.1964 38.3326 21.2568 38.4066 21.4602L36.986 22.2857C36.8407 22.1177 36.7891 22.0836 36.6821 22.1439L36.6729 22.1505L37.1182 22.9064L37.1235 22.9169L37.2397 22.85L37.2384 22.8395C37.2265 22.7791 37.1922 22.6859 37.1367 22.5494L37.7247 22.2069C37.9084 22.6098 38.1449 22.7568 38.3101 22.8093Z" fill="white"/>
<path fill-rule="evenodd" clip-rule="evenodd" d="M38.643 25.0248C38.9165 25.1784 39.2482 25.139 39.5508 24.9015L40.3661 24.2663C40.5339 24.4159 40.5894 24.4422 40.6846 24.3687L40.6952 24.3595L40.1824 23.7151L40.0781 23.7952L40.0807 23.8044C40.1018 23.8792 40.1666 23.9881 40.2181 24.0747L39.4213 24.7007C39.0857 24.9645 38.8029 24.9579 38.5835 24.6797C38.3404 24.3752 38.3893 24.1075 38.7342 23.8372L39.5323 23.2125C39.6063 23.282 39.6988 23.3673 39.7649 23.408L39.7715 23.412L39.8785 23.3306L39.3275 22.6377L39.3169 22.6469C39.2204 22.7204 39.235 22.782 39.3407 22.975L38.5293 23.6128C38.2941 23.7965 38.1725 23.9868 38.154 24.1928C38.1382 24.3857 38.2148 24.5852 38.3879 24.8044C38.4633 24.8975 38.5505 24.9723 38.643 25.0248Z" fill="white"/>
<path fill-rule="evenodd" clip-rule="evenodd" d="M40.0172 26.1538L40.4969 25.6525L40.7467 25.8874C40.9436 26.0738 40.9634 26.2706 40.7995 26.4439C40.6238 26.6236 40.4057 26.625 40.2115 26.4452L40.0199 26.2601C39.9802 26.2234 39.9789 26.1945 40.0172 26.1538ZM41.1124 25.0109L41.3146 25.2038C41.4811 25.3613 41.4903 25.5293 41.337 25.6894C41.2208 25.8101 41.0344 25.8823 40.8547 25.7248L40.6301 25.5148L41.1124 25.0109ZM40.3106 26.7563C40.5749 26.9059 40.8392 26.8731 41.0479 26.6552C41.229 26.4663 41.2396 26.2353 41.077 26.0017C41.2713 26.0673 41.4668 26.0188 41.6069 25.8731C41.7575 25.7156 41.8619 25.4571 41.5052 25.1172L40.8312 24.482L40.8207 24.4899C40.7348 24.5831 40.7572 24.6382 40.8854 24.8114L39.7516 25.9925C39.5719 25.8744 39.5138 25.8547 39.4279 25.9479L39.4173 25.9584L40.0939 26.5949C40.1652 26.6644 40.2379 26.7182 40.3106 26.7563Z" fill="white"/>
<path fill-rule="evenodd" clip-rule="evenodd" d="M42.8372 26.3936L42.8464 26.3962L42.9244 26.2899L42.2505 25.7925L42.2399 25.7847L42.2307 25.7952C42.1567 25.8949 42.1844 25.9435 42.3351 26.1009L41.3519 27.4185C41.1577 27.3214 41.0995 27.3109 41.0255 27.408L41.0176 27.4211L42.2161 28.3043L42.224 28.3096L42.232 28.3043C42.269 28.2794 42.3126 28.2414 42.3443 28.198C42.413 28.1062 42.4778 27.95 42.4976 27.8713L42.5002 27.8634L42.4117 27.7965L42.4038 27.8017C42.3205 27.8463 42.2386 27.9106 42.1355 28.0051L41.5924 27.6049L42.5808 26.2807C42.6575 26.3175 42.7619 26.3687 42.8372 26.3936Z" fill="white"/>
<path fill-rule="evenodd" clip-rule="evenodd" d="M44.2657 27.3239L44.275 27.3266L44.3463 27.2137L43.6156 26.7688L43.6037 26.761L43.5958 26.7728C43.531 26.8764 43.5693 26.9329 43.7385 27.0798L42.8795 28.4735C42.6694 28.3896 42.602 28.3856 42.5373 28.4893L42.532 28.4998L43.2614 28.9434L43.2733 28.9499L43.3447 28.8371L43.3381 28.8292C43.2879 28.7714 43.2006 28.6914 43.1372 28.6337L44.0001 27.2373C44.0781 27.2675 44.1864 27.3069 44.2657 27.3239Z" fill="white"/>
<path fill-rule="evenodd" clip-rule="evenodd" d="M44.6793 29.482C44.5009 29.4007 44.382 29.2589 44.3384 29.0752C44.2921 28.8862 44.3239 28.6644 44.4322 28.4348C44.6582 27.9571 45.0308 27.7681 45.4008 27.9413C45.4193 27.9492 45.4352 27.9584 45.4524 27.9689C45.7787 28.1526 45.858 28.545 45.6492 28.9846C45.4246 29.4571 45.0454 29.6526 44.6793 29.482ZM45.9626 29.1081C46.0961 28.8234 46.1185 28.5438 46.0273 28.3011C45.9388 28.0701 45.7565 27.885 45.5027 27.7669C44.9702 27.5176 44.3901 27.7486 44.1232 28.3102C43.9897 28.5963 43.9633 28.8772 44.0492 29.1226C44.1337 29.3522 44.3121 29.5373 44.5645 29.6541C44.5896 29.6672 44.6161 29.6764 44.6279 29.6803C44.7693 30.1068 44.9966 30.4192 45.2649 30.5727C45.2873 30.5845 45.3085 30.5963 45.3283 30.6042C45.5688 30.7158 45.7723 30.6698 45.8556 30.6239L45.8622 30.62L45.8635 30.511L45.8529 30.5084C45.845 30.5071 45.8357 30.5045 45.8252 30.5032C45.7657 30.4927 45.6758 30.473 45.5556 30.4165C45.3045 30.2997 45.0786 30.074 44.8843 29.7459C45.3296 29.8024 45.7512 29.557 45.9626 29.1081Z" fill="white"/>
<path fill-rule="evenodd" clip-rule="evenodd" d="M46.7538 30.4755C46.8331 30.5214 46.9269 30.5569 47.0339 30.591C47.2652 30.6592 47.4806 30.6382 47.6603 30.5319C47.8374 30.4282 47.9708 30.2445 48.0422 30.003L48.3395 29.0188C48.5615 29.045 48.6236 29.0332 48.6553 28.9177L48.6606 28.9059L47.8823 28.6763L47.8691 28.6723L47.8281 28.7996L47.8374 28.8062C47.8995 28.8521 48.0144 28.9046 48.1069 28.9479L47.8189 29.9138C47.7594 30.1146 47.6708 30.255 47.5572 30.3338C47.4422 30.4138 47.2942 30.4296 47.1225 30.3784C46.9269 30.3206 46.8027 30.2261 46.7445 30.0883C46.6917 29.9611 46.6956 29.8023 46.7564 29.6015L47.0445 28.6356C47.1462 28.6474 47.2718 28.6671 47.3484 28.6618L47.3577 28.6605L47.3947 28.5345L46.5569 28.2865L46.5437 28.2826L46.5397 28.2957C46.5067 28.4112 46.5516 28.4532 46.7525 28.5516L46.4578 29.5372C46.3732 29.8219 46.3838 30.0477 46.4882 30.2261C46.5476 30.3259 46.6348 30.4086 46.7538 30.4755Z" fill="white"/>
<path fill-rule="evenodd" clip-rule="evenodd" d="M50.0196 29.2938C50.0262 29.408 50.0408 29.4959 50.0699 29.5996L50.0725 29.6075L50.1822 29.6245L50.1861 29.6167C50.2271 29.5471 50.2919 29.4028 50.3077 29.2951C50.3183 29.2348 50.3183 29.1875 50.3103 29.1534L50.309 29.1429L48.8607 28.9251L48.8462 28.9224L48.8449 28.9382C48.8264 29.0602 48.8766 29.0944 49.0814 29.1626L48.8343 30.7768C48.6163 30.7833 48.5608 30.7991 48.541 30.9238L48.5396 30.9369L49.9892 31.156L49.9958 31.1573L50.0011 31.1495C50.0236 31.1101 50.0421 31.0563 50.0487 31.0051C50.0672 30.8896 50.0474 30.7295 50.0315 30.6521L50.0289 30.6429L49.9205 30.6285L49.9152 30.6337C49.8611 30.7164 49.8175 30.8083 49.7725 30.9303L49.1329 30.8332L49.2519 30.0589L49.7395 30.1337C49.8545 30.1495 49.9007 30.1035 49.9271 30.0668L49.9298 30.0642L49.9443 29.9566L49.281 29.8581L49.384 29.198L50.0196 29.2938Z" fill="white"/>
<path fill-rule="evenodd" clip-rule="evenodd" d="M51.5012 30.364L51.4986 30.3666V30.5543H51.9756C52.1355 30.5543 52.191 30.549 52.2412 30.4873L52.2438 30.4834V30.297H51.7642C51.6056 30.297 51.5501 30.3023 51.5012 30.364Z" fill="white"/>
<path fill-rule="evenodd" clip-rule="evenodd" d="M53.6872 31.1393L53.6898 31.1524L54.5395 31.0422L54.5514 31.0395L54.5355 30.9083L54.525 30.9057C54.4681 30.8952 54.3756 30.886 54.2461 30.8847L54.0743 29.5828L54.073 29.5776L54.0664 29.575C54.0215 29.554 53.9647 29.5487 53.8959 29.5579C53.7546 29.5763 53.5894 29.6471 53.5352 29.676L53.5259 29.6813L53.5405 29.7876L53.5497 29.7902C53.6079 29.7981 53.6858 29.8059 53.8035 29.8059L53.9501 30.9201C53.7294 30.9844 53.6713 31.0198 53.6872 31.1393Z" fill="white"/>
<path fill-rule="evenodd" clip-rule="evenodd" d="M55.2638 29.9385L55.388 29.9634C55.6576 30.0146 55.803 30.0789 55.8505 30.2941C55.8941 30.4844 55.7792 30.638 55.5585 30.6852C55.3246 30.7377 55.1541 30.6353 55.1053 30.4109C55.055 30.1891 55.1568 30.0474 55.2638 29.9385ZM54.9324 29.3534C54.9099 29.2576 54.9258 29.1775 54.976 29.1159C55.0209 29.0581 55.0962 29.0161 55.1914 28.9951C55.2812 28.9767 55.3618 28.9846 55.4279 29.0227C55.4345 29.0279 55.4411 29.0319 55.4477 29.0358C55.5138 29.083 55.564 29.1565 55.5852 29.255C55.6182 29.4033 55.5759 29.5384 55.457 29.671L55.4213 29.6631C55.165 29.6159 54.9799 29.566 54.9324 29.3534ZM54.807 30.4989C54.8374 30.638 54.9061 30.7429 55.0158 30.8138C55.0211 30.8178 55.0303 30.823 55.0383 30.8269C55.1783 30.9057 55.366 30.9214 55.5853 30.8729C55.9752 30.7876 56.2077 30.4923 56.1351 30.1734C56.0703 29.8794 55.8946 29.7758 55.6131 29.7049C55.773 29.6078 55.9342 29.4385 55.8747 29.1695C55.8219 28.9319 55.6091 28.7128 55.1691 28.8112C54.9801 28.8506 54.8321 28.9372 54.7396 29.0579C54.6498 29.1721 54.6181 29.3112 54.6484 29.4516C54.7145 29.7469 54.9154 29.8466 55.1109 29.9017C54.8744 30.0395 54.7581 30.2666 54.807 30.4989Z" fill="white"/>
<path fill-rule="evenodd" clip-rule="evenodd" d="M56.6773 30.5522L56.6813 30.5653L57.4979 30.3081L57.5111 30.3055L57.4702 30.1769H57.4609C57.4028 30.1769 57.3089 30.1847 57.1821 30.2044L56.7804 28.9472L56.7724 28.9459C56.7249 28.9354 56.6681 28.9393 56.6007 28.959C56.4672 29.001 56.3166 29.1021 56.265 29.1388L56.2611 29.1467L56.2928 29.2477H56.3033C56.3628 29.2464 56.4381 29.2412 56.5557 29.2215L56.8967 30.291C56.6918 30.3921 56.6416 30.438 56.6773 30.5522Z" fill="white"/>
<path fill-rule="evenodd" clip-rule="evenodd" d="M58.0772 28.8901C58.1948 28.8402 58.3045 28.8442 58.4009 28.8993H58.4023C58.4908 28.9505 58.5688 29.0463 58.6229 29.1762C58.6798 29.3087 58.6969 29.4373 58.6705 29.5436C58.6467 29.6473 58.582 29.7248 58.4855 29.7654C58.3811 29.8061 58.2847 29.8061 58.1922 29.7654C58.1789 29.7589 58.1684 29.7536 58.1578 29.7457C57.9345 29.6211 57.8142 29.293 57.7957 29.2418C57.8142 29.1198 57.9186 28.9557 58.0772 28.8901ZM57.9398 29.9255C57.9477 29.9294 57.9556 29.9334 57.9636 29.9373C58.138 30.0265 58.3362 30.0305 58.5384 29.9478C58.7181 29.873 58.8516 29.7286 58.9137 29.5423C58.9705 29.369 58.9599 29.1709 58.8872 28.999C58.8199 28.8376 58.7089 28.7103 58.5701 28.6446C58.4221 28.5738 58.2556 28.5725 58.0865 28.642C57.8486 28.7404 57.7653 28.9189 57.735 29.0344C57.6438 28.5593 57.8433 28.1171 58.2807 27.8454L58.2926 27.8376L58.2146 27.7221L58.2067 27.7286C57.513 28.0213 57.2341 28.7089 57.5262 29.4058C57.6279 29.6499 57.772 29.8284 57.9398 29.9255Z" fill="white"/>
<path fill-rule="evenodd" clip-rule="evenodd" d="M60.3125 28.3967C60.4829 28.398 60.6203 28.2602 60.6217 28.0923C60.6243 27.923 60.4882 27.7852 60.3177 27.7839C60.1473 27.7799 60.0085 27.9177 60.0072 28.087C60.0059 28.2563 60.142 28.3954 60.3125 28.3967Z" fill="white"/>
<path fill-rule="evenodd" clip-rule="evenodd" d="M35.174 10.4302H35.1661L35.1634 10.4368C35.1251 10.5063 35.0538 10.7478 35.0247 10.9171C34.9335 11.4145 35.1132 11.8213 35.4912 12.0365C35.6074 12.0995 35.7422 12.1494 35.8929 12.1756C36.514 12.2858 36.9804 11.9879 37.0822 11.4223C37.1548 11.0194 36.9513 10.7806 36.8588 10.6953L36.8536 10.6914L36.847 10.6927C36.8205 10.6992 36.7611 10.736 36.7412 10.7596L36.7346 10.7675L36.7426 10.7845C36.7967 10.8646 36.9143 11.0523 36.8668 11.316C36.8311 11.5208 36.7175 11.6769 36.5377 11.7701C36.3673 11.858 36.1439 11.8816 35.9101 11.841C35.6418 11.7937 35.4436 11.6966 35.322 11.5509C35.2044 11.4105 35.1661 11.232 35.2018 11.026C35.2269 10.8935 35.2718 10.7911 35.2982 10.7399C35.4713 10.7399 35.5995 10.711 35.6458 10.6979L35.6563 10.6953L35.6762 10.5877L35.6682 10.5837C35.5969 10.5391 35.4594 10.4604 35.3286 10.4381C35.2863 10.4302 35.2176 10.425 35.174 10.4302Z" fill="white"/>
<path fill-rule="evenodd" clip-rule="evenodd" d="M36.5419 9.69582L35.7609 9.13414L36.7256 9.12627L36.5419 9.69582ZM35.8205 8.84027C35.6804 8.8429 35.5787 8.84421 35.5179 9.03581L35.469 9.18017L37.0679 10.3495C37.06 10.4899 37.0666 10.5555 37.1327 10.5949C37.1459 10.5988 37.1604 10.6054 37.175 10.6106L37.1882 10.6145L37.4076 9.93345L37.4115 9.91901L37.2847 9.88095L37.2794 9.88752C37.2278 9.96494 37.1763 10.0594 37.1446 10.129L36.7059 9.81534L36.9279 9.12374L37.4697 9.1198C37.4551 9.19067 37.4432 9.29171 37.438 9.39276V9.40064L37.5635 9.44263L37.808 8.68673L37.8132 8.67492L37.8 8.66967C37.6903 8.63555 37.6494 8.68279 37.5622 8.82321L35.8298 8.84027H35.8205Z" fill="white"/>
<path fill-rule="evenodd" clip-rule="evenodd" d="M36.498 6.97385L36.3751 6.92005L36.0302 7.69957L36.0249 7.71138L36.0342 7.71532C36.1465 7.7665 36.198 7.72188 36.3236 7.53684L37.8287 8.19695C37.7732 8.4148 37.7745 8.47779 37.8881 8.53028L37.9014 8.53422L38.2463 7.75863L38.2515 7.74419L38.1273 7.69039L38.122 7.69957C38.0679 7.75732 38.0031 7.84918 37.9555 7.92267L36.4451 7.25732C36.4663 7.17464 36.4901 7.06178 36.498 6.98304V6.97385Z" fill="white"/>
<path fill-rule="evenodd" clip-rule="evenodd" d="M37.2349 5.73833C37.3406 5.77113 37.4846 5.79344 37.5533 5.79344H37.5613L37.6141 5.70027L37.6075 5.69108C37.4608 5.52835 37.3274 5.4378 37.2084 5.41418L37.2031 5.41287L37.1992 5.41943C37.1582 5.46405 37.0419 5.59922 36.9085 5.83938C36.697 6.22258 36.7393 6.5336 37.0248 6.69633C37.0274 6.69764 37.0314 6.69896 37.034 6.70158C37.2401 6.81444 37.4463 6.80394 37.6458 6.66746C37.7383 6.60447 37.7885 6.56247 37.852 6.50735C37.8876 6.47717 37.9273 6.44174 37.9841 6.39581C38.1334 6.27507 38.2576 6.21995 38.44 6.31707C38.4413 6.31838 38.444 6.31969 38.4453 6.321C38.6237 6.42205 38.6594 6.61628 38.5404 6.8315C38.4625 6.97323 38.3554 7.06772 38.2788 7.10709C38.185 7.07035 38.0383 7.02573 37.9207 7.01785H37.9128L37.8586 7.11365L37.8625 7.12153C37.9233 7.20683 38.0277 7.30788 38.1387 7.37218C38.1784 7.39581 38.2193 7.41155 38.259 7.42336L38.2656 7.42468L38.2709 7.42205C38.3316 7.38662 38.5418 7.25145 38.7109 6.94567C38.9303 6.55066 38.8668 6.21733 38.5365 6.03229C38.5312 6.02966 38.5285 6.02704 38.5259 6.0231C38.2761 5.88793 38.0462 5.92993 37.7793 6.15959C37.7542 6.1819 37.7317 6.20158 37.7119 6.21733C37.6432 6.27901 37.5983 6.31444 37.5269 6.36956C37.3815 6.47717 37.2626 6.49686 37.145 6.43124C37.1437 6.42993 37.141 6.42861 37.1397 6.4273C36.9785 6.33675 36.9521 6.17271 37.067 5.96405C37.1305 5.84987 37.1979 5.77507 37.2349 5.73833Z" fill="white"/>
<path fill-rule="evenodd" clip-rule="evenodd" d="M38.2895 3.84558L38.2816 3.84427L38.2763 3.84821C38.234 3.88758 38.1006 4.00831 37.9407 4.23272C37.683 4.5923 37.6922 4.9112 37.9645 5.1028C38.1534 5.23928 38.3622 5.25109 38.5763 5.13954C38.6754 5.08705 38.7296 5.0503 38.7996 5.00437C38.8379 4.97813 38.8829 4.94794 38.9463 4.90988C39.1049 4.8049 39.237 4.76421 39.4061 4.88364C39.4867 4.94138 39.533 5.02143 39.5422 5.10936C39.5515 5.20254 39.5171 5.3049 39.4458 5.40463C39.352 5.53587 39.2344 5.61723 39.1537 5.64873C39.0652 5.59886 38.9238 5.54112 38.8089 5.5175L38.8009 5.51487L38.7349 5.60673L38.7388 5.61592C38.7983 5.72484 38.9132 5.86001 39.0401 5.93088C39.0599 5.944 39.0797 5.95188 39.0982 5.95975L39.1035 5.96106L39.1088 5.95975C39.1736 5.93219 39.3995 5.82196 39.6017 5.53849C39.8686 5.16579 39.8409 4.82458 39.5251 4.60149C39.2938 4.43744 39.0599 4.45188 38.7666 4.65004C38.7401 4.66841 38.7164 4.68679 38.6952 4.69991C38.6186 4.7524 38.5723 4.7839 38.4917 4.82983C38.3371 4.92038 38.2169 4.92563 38.1059 4.8482C37.9512 4.73928 37.9433 4.56999 38.0834 4.37576C38.1574 4.26946 38.234 4.20254 38.2763 4.16973C38.3767 4.21566 38.5208 4.25503 38.5869 4.26159L38.5921 4.2629L38.6582 4.17366L38.6503 4.16579C38.5261 3.98731 38.4045 3.8797 38.2895 3.84558Z" fill="white"/>
<path fill-rule="evenodd" clip-rule="evenodd" d="M39.5939 2.59077C39.6916 2.64589 39.7736 2.68132 39.8753 2.71544L39.8846 2.71807L39.9559 2.63539L39.952 2.62752C39.9176 2.55665 39.8317 2.42279 39.7511 2.3493C39.7049 2.30862 39.6652 2.28368 39.6309 2.26925L39.6216 2.26531L38.6424 3.34799L38.6319 3.35717L38.6437 3.36636C38.7389 3.45035 38.7944 3.42804 38.9622 3.29418L40.1872 4.38736C40.0722 4.56977 40.055 4.62883 40.1489 4.7115L40.1594 4.72069L41.1465 3.63014L41.1413 3.62227C41.1214 3.5829 41.0858 3.53959 41.0461 3.50284C40.9602 3.42804 40.8149 3.35324 40.7395 3.32699L40.7303 3.32437L40.6576 3.40311L40.6616 3.41098C40.7012 3.50153 40.7541 3.58946 40.832 3.69051L40.396 4.16951L39.8119 3.6472L40.1423 3.28106C40.2202 3.19576 40.207 3.13145 40.1898 3.08946L40.1079 3.01465L39.6599 3.5094L39.1604 3.06321L39.5899 2.58946L39.5939 2.59077Z" fill="white"/>
<path fill-rule="evenodd" clip-rule="evenodd" d="M41.2932 1.03617L41.5641 0.834068C41.9632 0.533544 42.3517 0.592599 42.6596 0.99811C42.83 1.22252 42.9106 1.41937 42.9054 1.60572C42.8988 1.80782 42.7878 1.98892 42.5658 2.15559L42.357 2.31176C42.312 2.34457 42.2856 2.34063 42.2513 2.2947L41.2932 1.03617ZM41.949 2.84066L41.9569 2.84985L42.7246 2.27504C42.985 2.0795 43.1383 1.8341 43.1686 1.56638C43.1964 1.30916 43.1118 1.04013 42.9202 0.790791C42.5529 0.305227 42.019 0.251421 41.4904 0.646434L40.7187 1.22649L40.7293 1.23567C40.8046 1.33672 40.8641 1.32491 41.057 1.2278L42.0481 2.53095C41.9014 2.68712 41.871 2.73961 41.949 2.84066Z" fill="white"/>
<path fill-rule="evenodd" clip-rule="evenodd" d="M43.7275 1.5386L43.7354 1.55041L45.0093 0.829934L45.0172 0.825997L45.0159 0.816811C45.0093 0.773504 44.9895 0.718386 44.963 0.672454C44.9062 0.574029 44.7913 0.458544 44.7291 0.409987L44.7212 0.402113L44.6261 0.457231L44.6274 0.466418C44.6353 0.563531 44.6578 0.661956 44.7001 0.784003L44.1371 1.1029L43.746 0.421798L44.1755 0.179016C44.2733 0.123898 44.2838 0.0609061 44.2812 0.0162867H44.0486L43.6456 0.245945L43.5134 0.0162867H43.1632L43.8649 1.24332C43.6997 1.38112 43.6654 1.42967 43.7275 1.5386Z" fill="white"/>
<path fill-rule="evenodd" clip-rule="evenodd" d="M46.1586 0.039247C46.1176 0.120612 46.0343 0.191478 45.9194 0.23741C45.7714 0.301714 45.63 0.308276 45.5428 0.292528C45.4965 0.209851 45.4146 0.0969898 45.3313 0.015625H45.2626L45.2084 0.039247L45.2071 0.0484334C45.1979 0.191478 45.2362 0.401452 45.3313 0.53006L45.3353 0.533997L45.3406 0.53531C45.4093 0.545808 45.6591 0.568118 45.9828 0.43426C46.185 0.348958 46.3303 0.230848 46.4057 0.0943651C46.4202 0.0681184 46.4281 0.043184 46.4374 0.015625H46.1652C46.1612 0.0221867 46.1625 0.0326853 46.1586 0.039247Z" fill="white"/>
<path fill-rule="evenodd" clip-rule="evenodd" d="M63.8718 23.3676L63.8613 23.3598L63.3353 23.9477L63.4344 24.0356L63.4437 24.0317C63.5098 23.9949 63.5983 23.9241 63.6723 23.865L63.9709 24.1301V23.8257L63.8269 23.6957C63.9458 23.5068 63.9617 23.449 63.8718 23.3676Z" fill="white"/>
<path fill-rule="evenodd" clip-rule="evenodd" d="M63.9529 26.3038L63.9635 26.313L63.9714 26.3038V26.019C63.8803 26.1686 63.871 26.2303 63.9529 26.3038Z" fill="white"/>
<path fill-rule="evenodd" clip-rule="evenodd" d="M63.9713 24.6801L62.7859 24.5383H62.7793L62.7331 24.5869C62.6776 24.6499 62.6683 24.7168 62.7027 24.7903C62.7331 24.8559 62.7991 24.9189 62.8573 24.9701L63.9713 25.953V25.6459L63.0819 24.8638L63.9713 24.974V24.6801Z" fill="white"/>
<path fill-rule="evenodd" clip-rule="evenodd" d="M62.6905 27.1407C62.6033 27.0725 62.4751 27.0003 62.4117 26.9767L62.4037 26.9754L62.3218 27.0462L62.3244 27.0554C62.405 27.2575 62.4975 27.3901 62.6006 27.4504L62.6072 27.4557L62.6112 27.4504C62.6627 27.4242 62.8226 27.3376 63.0327 27.1591C63.3697 26.8704 63.4358 26.5607 63.2164 26.3087C63.0644 26.1289 62.8689 26.0699 62.6337 26.1276C62.524 26.1539 62.4632 26.1762 62.3852 26.205C62.3377 26.2208 62.2888 26.2392 62.2187 26.2641C62.039 26.3258 61.8989 26.3337 61.7668 26.1788C61.6307 26.02 61.6637 25.8245 61.8527 25.663C61.9756 25.5567 62.109 25.5069 62.1949 25.4964C62.2703 25.5646 62.3892 25.6552 62.4975 25.705L62.5055 25.709L62.5927 25.6355L62.59 25.6276C62.553 25.4885 62.4539 25.2982 62.3244 25.205L62.3192 25.2011L62.3139 25.2024C62.2438 25.2142 61.9994 25.268 61.7311 25.4964C61.5659 25.6368 61.4642 25.7943 61.4351 25.9478C61.4008 26.1145 61.4523 26.2746 61.5818 26.4255C61.7681 26.6381 61.9994 26.6775 62.3297 26.5567C62.3614 26.5449 62.3879 26.5344 62.413 26.5253C62.4975 26.4924 62.553 26.4728 62.6403 26.4478C62.8134 26.3966 62.931 26.4203 63.0195 26.5213C63.1437 26.6657 63.1094 26.8297 62.9283 26.9872C62.8279 27.0699 62.7394 27.1171 62.6905 27.1407Z" fill="white"/>
<path fill-rule="evenodd" clip-rule="evenodd" d="M63.9706 27.9352C60.7397 30.7449 56.5098 32.4509 51.8781 32.4509C41.7322 32.4509 33.5076 24.2843 33.5076 14.2082C33.5076 8.47458 36.1729 3.3591 40.3381 0.0165785H38.0692C34.3295 3.60581 32.0012 8.63468 32.0012 14.2082C32.0012 25.1097 40.8997 33.9483 51.8781 33.9483C56.4292 33.9483 60.6208 32.4247 63.9706 29.8696V27.9352Z" fill="white"/>
</svg>
